<svg xmlns="http://www.w3.org/2000/svg" xmlns:xlink="http://www.w3.org/1999/xlink" width="500" zoomAndPan="magnify" viewBox="0 0 375 374.999991" height="500" preserveAspectRatio="xMidYMid meet" version="1.0"><defs><clipPath id="8ba5ec5979"><path d="M 5 38 L 350 38 L 350 342 L 5 342 Z M 5 38 " clip-rule="nonzero"/></clipPath><clipPath id="554cac34f4"><path d="M 212.574219 -35.566406 L 409.554688 218.835938 L 162.265625 410.308594 L -34.714844 155.902344 Z M 212.574219 -35.566406 " clip-rule="nonzero"/></clipPath><clipPath id="dd8ac6e5be"><path d="M 212.574219 -35.566406 L 409.554688 218.835938 L 162.265625 410.308594 L -34.714844 155.902344 Z M 212.574219 -35.566406 " clip-rule="nonzero"/></clipPath><clipPath id="102f6d812c"><path d="M 212.59375 -35.542969 L 409.613281 218.910156 L 161.878906 410.726562 L -35.140625 156.273438 Z M 212.59375 -35.542969 " clip-rule="nonzero"/></clipPath><clipPath id="3eefbf9a22"><path d="M 212.59375 -35.542969 L 409.515625 218.785156 L 162.238281 410.25 L -34.683594 155.921875 Z M 212.59375 -35.542969 " clip-rule="nonzero"/></clipPath></defs><g clip-path="url(#8ba5ec5979)"><g clip-path="url(#554cac34f4)"><g clip-path="url(#dd8ac6e5be)"><g clip-path="url(#102f6d812c)"><g clip-path="url(#3eefbf9a22)"><path fill="#edc661" d="M 26.726562 203.6875 C 21.34375 205.007812 13.144531 205.351562 8.324219 201.578125 C 8.007812 204.433594 8.421875 207.113281 10.515625 209.207031 C 11.746094 210.386719 9.640625 212.570312 8.410156 211.390625 C 3.410156 206.566406 5.335938 199.859375 7.425781 193.976562 C 10.125 186.429688 13.429688 180.078125 19.222656 174.484375 C 22.886719 170.941406 26.902344 167.75 30.167969 163.796875 C 32.746094 160.695312 34.269531 156.832031 36.808594 153.679688 C 39.765625 150.042969 44.925781 148.027344 48.757812 151.542969 C 49.390625 152.15625 48.667969 153.265625 47.898438 152.679688 C 40.925781 147.25 36.414062 159.199219 33.574219 163.296875 C 30.515625 167.71875 26.378906 171.160156 22.605469 174.871094 C 17.863281 179.570312 14.296875 184.464844 11.851562 190.707031 C 10.863281 193.210938 9.484375 196.332031 8.71875 199.53125 C 11.171875 201.269531 13.515625 202.457031 16.761719 202.867188 C 20.09375 203.292969 23.414062 202.777344 26.75 202.796875 C 27.335938 202.738281 27.226562 203.617188 26.726562 203.6875 Z M 61.5 236.746094 C 71.316406 240.84375 82.515625 242.128906 92.832031 239.828125 C 93.660156 239.667969 93.824219 240.800781 93.203125 241.121094 C 84.003906 245.792969 69.890625 241.867188 61.101562 237.765625 C 60.421875 237.5 60.820312 236.480469 61.5 236.746094 Z M 210.652344 306.902344 C 207.953125 300.453125 203.539062 295.261719 199.527344 289.671875 C 196.5 285.457031 193.113281 280.570312 192.769531 275.226562 C 192.757812 274.601562 193.59375 274.347656 193.828125 274.957031 C 196.523438 281.09375 199.351562 286.488281 203.199219 291.964844 C 206.480469 296.613281 209.589844 301.242188 211.484375 306.652344 C 211.65625 307.074219 210.894531 307.421875 210.652344 306.902344 Z M 153.097656 290.691406 C 151.804688 287.183594 150.488281 282.828125 151.195312 279.042969 C 151.300781 278.566406 151.976562 278.515625 152.046875 279.019531 C 152.3125 280.789062 152.199219 282.691406 152.464844 284.460938 C 152.746094 286.457031 153.164062 288.425781 153.804688 290.378906 C 153.921875 290.839844 153.265625 291.113281 153.097656 290.691406 Z M 295.035156 233.34375 C 298.457031 233.066406 302.878906 234.382812 304.257812 237.898438 C 304.453125 238.460938 303.847656 239.007812 303.367188 238.589844 C 302.203125 237.59375 301.234375 236.445312 299.820312 235.644531 C 298.359375 234.878906 296.699219 234.265625 295.0625 234.195312 C 294.574219 234.175781 294.585938 233.375 295.035156 233.34375 Z M 254.289062 240.472656 C 236.800781 238.523438 218.527344 239.238281 203.589844 228.835938 C 203.222656 228.5625 203.65625 227.996094 204.019531 228.261719 C 212.152344 233.347656 221.300781 235.667969 230.769531 236.558594 C 238.695312 237.292969 246.929688 237 254.632812 239.179688 C 255.359375 239.40625 254.988281 240.566406 254.289062 240.472656 Z M 253.574219 172.746094 C 250.648438 171.929688 245.214844 175.027344 242.492188 176.109375 C 239.0625 177.5 235.683594 178.855469 232.328125 180.34375 C 231.90625 180.515625 231.632812 179.855469 232.054688 179.6875 C 237.183594 177.21875 242.300781 174.835938 247.519531 172.691406 C 249.632812 171.847656 252.417969 169.925781 254.113281 172.011719 C 254.46875 172.371094 253.960938 172.839844 253.574219 172.746094 Z M 293.175781 171.796875 C 300.90625 170.949219 308.550781 169.695312 315.589844 166.21875 C 322.253906 162.875 328.667969 158.699219 335.542969 155.828125 C 336.152344 155.59375 336.703125 156.507812 336.121094 156.878906 C 329.742188 161.109375 322.332031 164.710938 315.367188 167.972656 C 308.300781 171.308594 300.867188 171.925781 293.210938 172.558594 C 292.761719 172.59375 292.636719 171.816406 293.175781 171.796875 Z M 225.875 189.6875 C 240.367188 181.945312 255.773438 176.8125 271.472656 172.164062 C 279.164062 169.84375 286.9375 167.621094 294.488281 165.011719 C 302.363281 162.3125 309.839844 158.894531 317.621094 155.871094 C 318.230469 155.636719 318.785156 156.554688 318.199219 156.925781 C 304.65625 165.277344 288.035156 169.140625 272.894531 173.59375 C 257.019531 178.21875 240.84375 182.761719 226.140625 190.433594 C 225.714844 190.601562 225.445312 189.941406 225.875 189.6875 Z M 137.4375 104.371094 C 141.085938 111.742188 144.402344 119.289062 147.726562 126.753906 C 150.382812 132.835938 153.742188 139.324219 154.953125 145.894531 C 155.078125 146.667969 154.03125 146.847656 153.707031 146.226562 C 150.4375 140.0625 148.394531 133.03125 145.660156 126.535156 C 142.574219 119.28125 139.453125 111.980469 136.691406 104.632812 C 136.570312 104.171875 137.179688 103.9375 137.4375 104.371094 Z M 152.160156 78.746094 C 151.898438 78.003906 152.929688 77.597656 153.289062 78.269531 C 156.171875 84.335938 157.085938 91.136719 157.398438 97.769531 C 157.402344 98.082031 156.902344 98.152344 156.898438 97.839844 C 156.410156 91.183594 154.390625 85 152.160156 78.746094 Z M 146.941406 67.617188 C 152.015625 81.625 155.507812 96.859375 157.28125 111.609375 C 157.359375 112.023438 156.714844 112.207031 156.542969 111.785156 C 156.375 111.363281 156.207031 110.941406 156.039062 110.519531 C 155.972656 110.332031 156.21875 110.140625 156.371094 110.335938 C 154.957031 108.511719 154.84375 103.460938 154.296875 101.117188 C 153.542969 97.59375 152.742188 94.105469 151.851562 90.605469 C 149.960938 83.058594 147.601562 75.71875 145.476562 68.273438 C 145.25 67.265625 146.617188 66.683594 146.941406 67.617188 Z M 227.121094 76.582031 C 209.144531 91.050781 194.425781 107.902344 184.476562 128.960938 C 184.183594 129.503906 183.378906 129.179688 183.582031 128.625 C 192.664062 107.765625 207.136719 88.257812 226.078125 75.332031 C 227.003906 74.695312 227.921875 75.878906 227.121094 76.582031 Z M 261.785156 67.207031 C 258.992188 71.265625 255.015625 74.503906 251.628906 77.996094 C 247.625 82.121094 243.894531 86.59375 240.449219 91.238281 C 240.078125 91.679688 239.433594 91.152344 239.753906 90.746094 C 242.996094 85.941406 246.425781 81.390625 250.363281 77.074219 C 254.03125 73.128906 258.042969 69.628906 261.230469 65.265625 C 261.816406 64.492188 262.917969 65.300781 262.503906 66.09375 C 262.816406 66.089844 263.070312 66.210938 263.25 66.546875 C 266.660156 72.992188 266.0625 80.492188 261.910156 86.472656 C 261.628906 86.925781 260.984375 86.398438 261.300781 85.992188 C 264.921875 80.347656 265 73.09375 261.785156 67.207031 Z M 247.25 130.460938 C 252.691406 122.0625 258.230469 114.609375 261.046875 104.761719 C 261.191406 104.335938 261.96875 104.523438 261.824219 104.949219 C 259.5625 114.289062 255.464844 124.730469 248.011719 131.136719 C 247.554688 131.570312 246.96875 130.914062 247.25 130.460938 Z M 170.117188 185.601562 C 170.207031 186.636719 170.308594 187.585938 170.449219 188.582031 C 170.53125 188.996094 170.660156 189.367188 170.84375 189.703125 C 169.699219 192.007812 168.480469 194.214844 167.265625 196.421875 C 168.175781 192.796875 169.082031 189.167969 170.117188 185.601562 Z M 174.300781 199.273438 C 173.105469 200.59375 171.824219 201.902344 170.554688 203.121094 C 170.707031 202.292969 170.894531 201.515625 171.046875 200.691406 C 172.734375 197.5625 174.425781 194.433594 176.230469 191.457031 C 179.6875 185.699219 183.175781 179.996094 186.742188 174.386719 C 186.082031 176.085938 185.722656 177.867188 185.859375 179.574219 C 185.921875 180.476562 186.28125 181.144531 186.765625 181.5625 C 186.570312 182.027344 186.429688 182.457031 186.324219 182.933594 C 186.273438 182.972656 186.308594 183.019531 186.300781 183.109375 C 185.9375 183.152344 185.554688 183.367188 185.234375 183.773438 C 181.21875 188.699219 178.691406 194.53125 174.300781 199.273438 Z M 186.796875 216.945312 C 184.191406 216.75 181.695312 216.386719 179.125 215.929688 C 181.6875 215.761719 184.21875 215.460938 186.726562 215.023438 C 186.777344 215.695312 186.785156 216.320312 186.796875 216.945312 Z M 205.324219 220.140625 L 205.375 220.101562 L 205.363281 220.191406 C 205.410156 220.152344 205.410156 220.152344 205.324219 220.140625 Z M 174.054688 191.402344 C 174.054688 191.402344 174.09375 191.449219 174.054688 191.402344 C 174.054688 191.402344 174.042969 191.488281 173.996094 191.527344 C 174.042969 191.488281 174.042969 191.488281 174.054688 191.402344 Z M 182.933594 197.964844 C 183.328125 197.65625 183.675781 197.390625 184.03125 197.03125 C 183.394531 197.84375 182.765625 198.566406 182.128906 199.378906 C 182.460938 198.882812 182.703125 198.378906 182.933594 197.964844 Z M 197.644531 203.171875 C 197.796875 203.367188 197.996094 203.53125 198.199219 203.6875 C 197.328125 203.886719 196.367188 204.078125 195.496094 204.28125 C 196.175781 203.832031 196.882812 203.519531 197.644531 203.171875 Z M 176.75 180.070312 C 176.769531 179.894531 176.808594 179.945312 176.75 180.070312 Z M 273.488281 104.691406 C 278.867188 100.609375 283.59375 95.683594 288.1875 90.785156 C 288.589844 90.390625 287.882812 89.675781 287.476562 90.070312 C 283.394531 94.097656 279.011719 97.730469 274.613281 101.449219 C 274.820312 100.898438 274.972656 100.382812 275.128906 99.867188 C 276.9375 93.726562 277.601562 87.125 276.609375 80.9375 C 276.699219 80.949219 276.78125 80.960938 276.871094 80.972656 C 277.007812 80.945312 277.183594 80.96875 277.320312 80.941406 C 278.082031 80.902344 278.082031 79.878906 277.5 79.539062 C 279.566406 80.46875 282.242188 79.738281 284.769531 79.835938 C 287.074219 79.949219 289.378906 80.375 291.640625 80.839844 C 294.070312 81.328125 299.316406 81.769531 301.023438 83.765625 C 302.613281 85.617188 300.699219 88.050781 300.117188 90.160156 C 297.386719 99.703125 297.980469 111.097656 288.617188 117.082031 C 288.132812 117.378906 287.976562 117.894531 288.050781 118.390625 C 278.015625 120.550781 268.710938 125.699219 259.800781 130.941406 C 259.957031 130.738281 260.121094 130.535156 260.238281 130.28125 C 265.027344 128.394531 269.097656 123.742188 272.796875 120.558594 C 278.761719 115.386719 284.789062 110.40625 289.648438 104.113281 C 290.078125 103.546875 289.21875 102.945312 288.75 103.464844 C 284.132812 108.9375 278.570312 113.402344 273.125 118.015625 C 269.828125 120.804688 266.257812 124.671875 262.285156 127.199219 C 263.820312 124.585938 265.230469 121.914062 266.628906 119.328125 C 269.070312 114.515625 271.511719 109.699219 273.488281 104.691406 Z M 317.757812 284.347656 C 317.71875 284.300781 317.632812 284.285156 317.59375 284.234375 C 318.078125 283.941406 318.570312 283.558594 319.058594 283.265625 C 319.589844 282.929688 319.085938 281.976562 318.46875 282.296875 C 315.140625 283.925781 311.574219 284.632812 308.105469 285.972656 C 306.75 286.472656 307.308594 288.726562 308.730469 288.414062 C 311.472656 287.871094 314.101562 286.46875 316.480469 284.941406 C 316.457031 285.117188 316.523438 285.304688 316.589844 285.492188 C 318.984375 289.40625 307.816406 291.730469 306.253906 291.753906 C 306.027344 291.769531 305.851562 291.746094 305.628906 291.765625 C 305.480469 291.167969 304.515625 291.042969 304.175781 291.625 C 302.03125 291.308594 299.992188 290.515625 297.945312 289.808594 C 294.738281 288.734375 291.371094 287.550781 288.285156 289.386719 C 287.515625 289.824219 288.035156 291.003906 288.734375 291.09375 C 292.933594 291.714844 296.472656 292.609375 300.507812 293.832031 C 301.234375 294.058594 301.925781 294.234375 302.628906 294.324219 C 301.058594 296.488281 298.84375 298.125 296.191406 298.675781 C 293.210938 299.324219 290.378906 298.117188 287.445312 298.414062 C 283.882812 298.71875 281.425781 299.835938 277.753906 298.566406 C 274.726562 297.515625 271.972656 295.695312 269.234375 294.101562 C 263.886719 290.972656 258.636719 287.765625 253.484375 284.484375 C 253.484375 284.484375 253.484375 284.484375 253.570312 284.496094 C 257.257812 285.988281 261.234375 286.9375 265.042969 288.175781 C 269.367188 289.570312 273.65625 291.230469 278.050781 292.410156 C 278.566406 292.566406 278.832031 291.886719 278.324219 291.644531 C 274.410156 289.855469 270.144531 288.023438 265.84375 286.453125 C 270.929688 287.097656 275.96875 287.78125 280.917969 289.164062 C 281.820312 289.414062 282.226562 288.304688 281.433594 287.894531 C 274.464844 284.203125 266.492188 283.816406 258.878906 282.363281 C 254.351562 281.519531 250.019531 280.214844 245.863281 278.214844 C 242.03125 276.4375 238.757812 273.839844 234.914062 272.152344 C 234.914062 272.152344 234.914062 272.152344 234.875 272.101562 C 231.351562 269.691406 227.839844 267.195312 224.363281 264.75 C 233.535156 265.871094 244.046875 263.105469 252.515625 266.582031 C 252.980469 266.777344 253.246094 266.097656 252.78125 265.902344 C 247.039062 263.394531 241 263.25 234.808594 263.222656 C 229.644531 263.195312 224.949219 262.953125 220.191406 261.816406 C 219.421875 261.230469 218.601562 260.679688 217.828125 260.089844 C 220.449219 260.511719 223.199219 260.59375 225.800781 260.476562 C 237.671875 259.976562 248.683594 257.140625 260.453125 260.59375 C 260.96875 260.75 261.246094 259.980469 260.730469 259.828125 C 251.921875 256.929688 243.679688 256.90625 234.542969 257.976562 C 227.351562 258.804688 220.292969 259.289062 213.882812 257.140625 C 210.378906 254.554688 206.886719 251.886719 203.394531 249.214844 C 198.410156 245.328125 193.386719 241.394531 188.511719 237.347656 C 185.855469 235.136719 182.75 232.5625 180.679688 229.582031 C 181.738281 230.027344 182.796875 230.472656 183.851562 230.917969 C 191.195312 233.765625 198.652344 236.449219 205.960938 239.25 C 206.511719 239.449219 206.839844 238.644531 206.335938 238.402344 C 200.195312 235.886719 194.066406 233.28125 187.875 230.804688 C 184.910156 229.628906 181.9375 228.449219 179.191406 226.941406 C 178.816406 226.046875 178.535156 225.078125 178.433594 224.128906 C 182.261719 224.167969 186.007812 223.796875 189.835938 223.125 C 189.976562 223.09375 190.160156 223.03125 190.300781 223.003906 C 190.824219 223.070312 191.3125 223.085938 191.863281 222.976562 C 192.671875 223.617188 193.851562 223.808594 194.480469 222.6875 C 194.53125 222.648438 194.542969 222.5625 194.59375 222.523438 C 197.785156 222.660156 200.953125 222.972656 204.074219 223.636719 C 205.117188 223.859375 205.832031 223.148438 206.070312 222.332031 C 206.375 222.726562 206.730469 223.082031 207.234375 223.324219 C 208.785156 224.101562 211.339844 224.335938 213.960938 224.042969 C 215.140625 224.238281 216.328125 224.34375 217.519531 224.449219 C 223.242188 224.996094 228.941406 225.410156 234.625 225.90625 C 235.289062 225.945312 235.410156 224.980469 234.757812 224.855469 C 229.359375 224.214844 223.652344 223.890625 218.109375 222.964844 C 221.855469 221.570312 224.386719 218.816406 222.039062 214.863281 C 220.140625 211.59375 215.820312 211.222656 212.4375 211.550781 C 208.738281 211.886719 205.125 213.34375 202.585938 216.097656 C 201.703125 217.097656 201.867188 218.234375 202.570312 219.035156 C 200.207031 218.335938 197.863281 217.859375 195.492188 217.558594 C 195.3125 216.199219 194.855469 214.890625 194.210938 213.652344 C 202.988281 211.914062 211.605469 209.351562 220.105469 206.644531 C 220.753906 206.457031 220.335938 205.515625 219.726562 205.75 C 211.074219 208.257812 202.34375 210.671875 193.414062 212.214844 C 193.195312 211.828125 193.015625 211.496094 192.75 211.148438 C 191.183594 208.722656 187.179688 210.085938 186.929688 212.730469 C 186.921875 212.816406 186.898438 212.992188 186.886719 213.082031 C 182.914062 213.464844 178.925781 213.628906 174.992188 213.753906 C 177.183594 212.296875 179.515625 211.121094 181.914062 210.132812 C 184.597656 209 187.296875 208.097656 189.945312 206.917969 C 193.9375 206.355469 197.886719 205.429688 201.851562 204.417969 C 211.292969 202.007812 220.632812 199.359375 230.046875 196.808594 C 230.558594 196.652344 230.320312 195.726562 229.773438 195.839844 C 221.261719 197.921875 212.800781 199.96875 204.289062 202.050781 C 209.03125 198.777344 217.226562 193.222656 213.4375 188.019531 C 211.429688 185.226562 208.496094 186.546875 206.371094 188.191406 C 203.554688 190.375 199.03125 193.320312 197.871094 196.828125 C 197.71875 197.34375 197.785156 197.84375 197.957031 198.265625 C 197.363281 198.722656 197 199.480469 196.859375 200.222656 C 193.578125 200.785156 190.191406 200.800781 186.9375 201.503906 C 186.476562 201.621094 186.015625 201.742188 185.605469 201.824219 C 186.691406 200.980469 187.789062 200.050781 188.890625 199.121094 C 197.066406 192.316406 205.167969 185.410156 213.621094 178.863281 C 230.769531 165.667969 249.0625 153.949219 269.257812 146.21875 C 269.867188 145.984375 269.503906 145.003906 268.84375 145.277344 C 250.089844 152.210938 232.871094 162.457031 216.792969 174.277344 C 208.628906 180.28125 200.734375 186.628906 192.992188 193.179688 C 190.347656 195.386719 187.695312 197.675781 185.011719 199.832031 C 191.949219 191.222656 198.3125 181.867188 206.390625 174.425781 C 220.921875 161.117188 238.53125 151.277344 256.238281 142.785156 C 256.574219 142.605469 256.378906 142.046875 256.042969 142.226562 C 241.734375 148.878906 227.648438 155.914062 214.996094 165.3125 C 228.128906 153.878906 242.832031 144.472656 257.769531 135.671875 C 271.40625 127.644531 287.109375 117.378906 303.726562 120.558594 C 307.597656 121.273438 311.25 122.714844 314.472656 125.039062 C 316.796875 126.714844 318.804688 128.796875 321.460938 129.980469 C 313.726562 129.492188 305.375 131.371094 298.460938 133.878906 C 297.851562 134.117188 298.226562 135.011719 298.875 134.824219 C 303.742188 133.347656 308.691406 132.28125 313.726562 131.941406 C 318.359375 131.59375 322.871094 132.207031 327.472656 132.125 C 327.785156 132.117188 328.003906 131.789062 328 131.480469 C 328.789062 131.578125 329.527344 131.71875 330.308594 131.90625 C 336.242188 133.238281 338.765625 138.234375 337.816406 143.953125 L 337.804688 144.039062 C 337.179688 144.761719 337.980469 145.796875 338.847656 145.285156 C 340.292969 144.089844 341.742188 143.914062 343.289062 144.691406 C 344.992188 144.640625 345.90625 145.511719 345.941406 147.300781 C 346.894531 149.648438 346.734375 150.875 345.984375 153.277344 C 345.148438 155.976562 343.796875 158.523438 342.179688 160.722656 C 338.882812 165.25 334.425781 168.785156 329.433594 171.226562 C 324.292969 173.785156 318.714844 175.261719 313.0625 176.234375 C 307.875 177.09375 302.382812 177.15625 297.386719 178.96875 C 295.980469 179.503906 296.589844 181.722656 298.085938 181.511719 C 298.3125 181.492188 298.5 181.429688 298.722656 181.414062 C 298.652344 181.625 298.742188 181.949219 299.042969 182.03125 C 303.917969 183.628906 309.550781 183.855469 314.320312 185.929688 C 308.320312 187.886719 302.21875 187.871094 295.988281 188.507812 C 289.347656 189.222656 282.902344 190.5 276.382812 191.992188 C 275.835938 192.097656 275.898438 193 276.535156 192.902344 C 283.878906 191.5625 291.355469 190.59375 298.789062 189.976562 C 304.234375 189.550781 310.960938 190.273438 315.519531 186.660156 C 315.570312 186.621094 315.617188 186.585938 315.628906 186.496094 C 316.425781 186.910156 317.207031 187.410156 317.941406 187.949219 C 324.964844 193.339844 324.304688 201.277344 319.222656 207.582031 C 318.644531 208.265625 319.476562 209.441406 320.332031 209.015625 C 326.773438 205.6875 327.414062 196.8125 323.953125 191.117188 C 319.414062 183.726562 309.183594 181.847656 300.945312 181.117188 C 316.257812 179.136719 333.59375 177.011719 343.578125 163.75 C 346.691406 159.601562 350.582031 152.164062 348.734375 146.714844 C 347.441406 142.902344 342.574219 141.214844 339.214844 143.105469 C 339.964844 139.679688 339.035156 136.132812 336.667969 133.378906 C 332.75 128.828125 326.566406 130.136719 321.710938 127.335938 C 316.3125 124.246094 312.734375 120.140625 306.445312 118.453125 C 302.089844 117.320312 297.535156 117.054688 293.0625 117.511719 C 296.667969 114.40625 298.691406 110.074219 299.960938 105.375 C 300.75 102.3125 301.203125 99.117188 301.820312 96.03125 C 302.492188 92.511719 304.058594 89.320312 304.808594 85.894531 C 305.847656 80.90625 298.648438 79.679688 295.085938 78.960938 C 289.089844 77.753906 282.367188 76.324219 276.449219 78.691406 C 276.398438 78.730469 276.351562 78.765625 276.351562 78.765625 C 275.203125 73.8125 272.941406 69.15625 269.121094 65.242188 C 268.410156 64.527344 267.136719 65.4375 267.835938 66.238281 C 285.390625 86.863281 265.164062 117.539062 252.34375 134.894531 C 252.234375 135.058594 252.160156 135.273438 252.140625 135.449219 C 238.652344 143.363281 225.523438 151.945312 213.621094 162.109375 C 203.621094 170.644531 195.460938 181.152344 186.21875 190.359375 C 186.820312 188.789062 187.460938 187.265625 188.355469 185.863281 C 188.734375 185.332031 188.765625 184.757812 188.59375 184.335938 C 194.238281 183.046875 201.84375 173.761719 198.855469 168.167969 C 197.027344 164.683594 193.578125 165.539062 191.257812 167.652344 C 201.292969 152.214844 211.871094 137.070312 223.007812 122.441406 C 223.386719 121.910156 222.613281 121.324219 222.234375 121.855469 C 210.476562 136.804688 199.214844 152.085938 188.800781 168.050781 C 185.035156 173.8125 181.394531 179.636719 177.84375 185.464844 C 178.226562 184.222656 178.429688 182.957031 178.636719 181.691406 C 183.066406 172.492188 187.820312 163.519531 192.953125 154.722656 C 203.316406 137.054688 215.25 120.386719 227.988281 104.359375 C 228.207031 104.03125 227.765625 103.664062 227.457031 103.980469 C 213.214844 119.90625 200.871094 137.367188 190.140625 155.792969 C 186.082031 162.804688 182.226562 169.980469 178.667969 177.238281 C 178.644531 177.101562 178.667969 176.925781 178.675781 176.835938 C 178.566406 175.265625 176.792969 173.792969 175.1875 174.167969 C 174.636719 174.277344 174.164062 174.484375 173.691406 174.691406 C 178.292969 161.328125 184.402344 148.378906 192.976562 137.082031 C 193.355469 136.550781 192.621094 136.011719 192.203125 136.492188 C 182.6875 148.207031 176.125 161.589844 171.359375 175.867188 C 169.121094 182.578125 167.222656 189.421875 165.589844 196.300781 C 165.285156 197.640625 164.890625 198.972656 164.535156 200.355469 C 163.664062 197.078125 162.523438 193.769531 161.6875 190.546875 C 161.515625 189.8125 160.339844 189.929688 160.464844 190.703125 C 161.457031 195.152344 162.078125 200.042969 163.382812 204.484375 C 163.3125 204.699219 163.242188 204.914062 163.257812 205.140625 C 162.929688 205.945312 162.644531 206.796875 162.355469 207.652344 C 162.28125 207.554688 162.164062 207.40625 162 207.296875 C 161.390625 206.816406 160.738281 206.378906 160.082031 205.9375 C 158.363281 200.863281 155.964844 195.925781 154.300781 190.8125 C 151.84375 183.550781 149.804688 176.117188 148.402344 168.589844 C 148.296875 168.039062 147.394531 168.105469 147.496094 168.742188 C 149.113281 180.132812 151.777344 192.453125 156.589844 203.265625 C 153.648438 200.488281 151.089844 197.800781 149.035156 194.023438 C 146.988281 190.152344 145.511719 186 144.074219 181.898438 C 143.816406 181.152344 142.773438 181.644531 142.996094 182.339844 C 144.457031 187.292969 146.199219 193.527344 149.363281 198.429688 C 149.035156 198.210938 148.707031 197.992188 148.425781 197.734375 C 143.113281 193.628906 139.363281 188.785156 136.386719 182.792969 C 131.164062 172.375 126.90625 162.789062 118.886719 154.0625 C 104.355469 138.363281 81.898438 120.902344 91.226562 96.6875 C 91.492188 96.007812 90.46875 95.296875 90.019531 96.042969 C 76.847656 116.828125 98.464844 138.105469 111.886719 151.660156 C 116.507812 156.300781 120.980469 161.054688 124.550781 166.589844 C 127.570312 171.203125 129.636719 176.324219 131.988281 181.300781 C 112.0625 161.796875 83.105469 154.738281 56.4375 149.308594 C 54.441406 148.878906 54.089844 151.996094 56.035156 152.464844 C 84 158.550781 112.574219 164.402344 133.78125 185.046875 C 133.847656 185.234375 134 185.433594 134.066406 185.617188 C 135.46875 188.246094 137.039062 190.585938 138.8125 192.769531 C 135.164062 190.613281 131.398438 188.710938 127.707031 186.90625 C 120.199219 183.234375 112.238281 179.597656 104.007812 177.75 C 100.457031 176.945312 96.964844 176.726562 93.367188 176.980469 C 88.683594 177.367188 85.058594 176.460938 80.550781 175.445312 C 73.410156 173.78125 65.324219 173.960938 58.4375 176.605469 C 58.015625 176.777344 58.199219 177.425781 58.648438 177.390625 C 67.234375 175.402344 74.585938 175.402344 83.011719 177.808594 C 89.71875 179.726562 96.28125 177.886719 103.097656 179.328125 C 118.414062 182.566406 131.757812 191.117188 145.058594 199 C 149.59375 202.914062 154.695312 206.234375 159.882812 209.566406 C 160.039062 209.765625 160.238281 209.925781 160.464844 209.90625 C 160.933594 210.101562 161.46875 210.078125 161.851562 209.859375 C 161.734375 210.425781 161.582031 210.941406 161.5 211.554688 C 153.871094 206.398438 145.824219 201.722656 137.296875 198.371094 C 126.855469 194.285156 116.398438 193.445312 105.339844 194.898438 C 98.816406 195.761719 92.441406 196.824219 85.8125 196.742188 C 79.179688 196.660156 72.566406 195.777344 65.960938 195.519531 C 55.359375 195.109375 44.199219 196.324219 35.621094 203.121094 C 35.226562 203.429688 35.683594 204.019531 36.082031 203.714844 C 46.652344 196.320312 59.222656 196.625 71.53125 197.605469 C 82.597656 198.519531 92.902344 198.445312 103.921875 196.945312 C 115.304688 195.402344 125.804688 195.886719 136.585938 200.105469 C 144.820312 203.289062 152.292969 207.933594 159.71875 212.621094 C 158.714844 212.449219 157.710938 212.277344 156.757812 212.066406 C 150.363281 210.855469 144.019531 209.917969 137.558594 209.230469 C 124.808594 207.878906 112.199219 207.84375 99.433594 208.71875 C 98.898438 208.738281 99.019531 209.511719 99.558594 209.492188 C 111.269531 209.195312 123.15625 209.632812 134.816406 210.800781 C 140.140625 211.339844 145.441406 212.054688 150.71875 212.949219 C 153.902344 213.488281 157.371094 213.882812 160.648438 214.742188 C 153.925781 217.5 146.953125 219.421875 139.710938 220.285156 C 135.179688 220.871094 130.617188 221.003906 126.0625 220.738281 C 122.695312 220.578125 119.117188 219.636719 115.804688 220.464844 C 111.65625 221.539062 108.277344 223.917969 103.835938 224.515625 C 99.394531 225.109375 94.808594 224.707031 90.359375 223.964844 C 81.632812 222.503906 73.210938 219.695312 64.289062 219.097656 C 63.710938 219.070312 63.550781 219.984375 64.164062 220.0625 C 73.300781 220.734375 81.929688 224.007812 90.90625 225.59375 C 99.058594 227.027344 106.363281 226.351562 113.964844 222.992188 C 118.636719 220.957031 123.925781 222.472656 128.855469 222.609375 C 132.808594 222.707031 136.714844 222.449219 140.660156 221.921875 C 147.6875 220.984375 154.5625 219.140625 161.101562 216.449219 C 161.089844 216.535156 161.066406 216.710938 161.054688 216.800781 C 160.972656 217.101562 160.941406 217.363281 160.992188 217.636719 C 160.941406 218.390625 160.851562 219.089844 160.800781 219.84375 C 160.789062 219.929688 160.828125 219.980469 160.867188 220.027344 C 156.28125 222.789062 150.398438 224.183594 145.597656 225.84375 C 139.351562 227.996094 133.078125 230.007812 126.703125 231.78125 C 126.191406 231.9375 126.433594 232.863281 126.941406 232.703125 C 134.03125 230.929688 141.042969 229.054688 147.972656 226.769531 C 153 225.09375 159.097656 223.769531 163.359375 220.390625 C 164.144531 220.886719 165.027344 221.3125 165.957031 221.699219 C 156.132812 228.117188 146.644531 234.757812 135.578125 239.054688 C 123.816406 243.582031 110.839844 243.980469 99.742188 250.285156 C 98.6875 250.863281 99.363281 252.554688 100.457031 252.023438 C 112.222656 246.074219 125.925781 245.898438 138.210938 241.128906 C 144.539062 238.675781 150.695312 235.492188 156.679688 231.886719 C 155.4375 233.242188 154.195312 234.597656 153.089844 235.929688 C 146.515625 243.785156 140.222656 251.898438 134.054688 260.070312 C 133.578125 260.679688 134.511719 261.378906 135.027344 260.820312 C 141.453125 253.792969 147.710938 246.652344 153.902344 239.328125 C 156.742188 235.945312 159.691406 232.714844 163.128906 229.894531 C 166.070312 227.460938 169.328125 225.648438 172.488281 223.597656 C 172.5625 223.695312 172.730469 223.804688 172.804688 223.902344 C 172.039062 224.652344 171.226562 225.441406 170.5 226.242188 C 168.800781 227.003906 167.742188 228.296875 166.964844 229.847656 C 162.644531 234.378906 158.476562 239.105469 155.402344 244.332031 C 151.40625 251.222656 149.882812 258.960938 150.300781 266.855469 C 150.347656 267.527344 151.34375 267.390625 151.386719 266.722656 C 150.902344 253.429688 157.566406 243.449219 165.730469 234.28125 C 165.507812 236.035156 165.460938 237.8125 165.472656 239.460938 C 165.535156 243.835938 165.828125 248.195312 166.429688 252.546875 C 167.035156 256.902344 169 262.097656 167.039062 266.304688 C 166.796875 266.808594 167.5625 267.082031 167.804688 266.578125 C 170.21875 261.628906 168.066406 255.785156 167.613281 250.605469 C 167.070312 244.386719 165.941406 236.488281 168.980469 230.816406 C 170.46875 229.265625 172.007812 227.679688 173.5 226.128906 C 172.644531 231.457031 172.046875 236.820312 172.476562 242.175781 C 173.121094 250.054688 176.382812 257.332031 178.769531 264.804688 C 183.980469 281.238281 186.839844 298.625 187.136719 315.863281 C 187.167969 316.308594 187.804688 316.210938 187.859375 315.773438 C 187.796875 299.859375 185.914062 284.246094 181.71875 268.921875 C 179.523438 260.980469 176.019531 253.183594 174.734375 245.089844 C 173.824219 239.316406 174.347656 233.457031 175.175781 227.679688 C 181.429688 245.359375 191.933594 261.886719 202.367188 277.199219 C 208.03125 285.535156 213.527344 295.191406 220.636719 302.332031 C 227.910156 309.582031 239.15625 310.515625 243.359375 320.851562 C 243.894531 322.257812 245.9375 321.625 245.851562 320.1875 C 245.128906 311.183594 235.214844 307.878906 228.539062 303.957031 C 219.378906 298.5625 213.558594 287.261719 207.652344 278.714844 C 198.054688 264.890625 189.464844 250.835938 181.953125 236.023438 C 186.410156 240.558594 192.117188 244.355469 196.09375 247.441406 C 209.617188 258.070312 223.613281 268.175781 238.011719 277.578125 C 245.082031 282.21875 252.265625 286.691406 259.511719 291.042969 C 265.425781 294.597656 271.839844 299.511719 278.597656 301.390625 C 281.09375 302.066406 283.207031 301.933594 285.765625 301.453125 C 289.46875 300.71875 293.035156 301.753906 296.675781 301.144531 C 300.777344 300.417969 303.832031 297.820312 305.351562 294.269531 C 306.941406 294.382812 308.515625 294.269531 310.085938 293.84375 C 312.777344 293.339844 322.960938 288.617188 317.757812 284.347656 Z M 193.621094 327.910156 C 196.863281 328.007812 199 327.300781 201.640625 325.496094 C 203.246094 324.410156 204.722656 323.347656 206.691406 323.953125 C 207.421875 324.179688 207.421875 325.207031 206.929688 325.589844 C 205.878906 326.480469 204.535156 326.890625 203.332031 327.582031 C 202.226562 328.199219 201.113281 328.90625 199.894531 329.375 C 197.753906 330.085938 195.382812 330.183594 193.253906 329.378906 C 192.410156 329.003906 192.78125 327.847656 193.621094 327.910156 Z M 135.46875 281.816406 C 136.453125 289.828125 142.160156 293.625 146.269531 299.851562 C 148.199219 302.859375 148.839844 306.234375 150.199219 309.527344 C 151.707031 313.105469 154.160156 315.867188 157.171875 318.121094 C 156.714844 311.914062 156.949219 305.882812 155.28125 299.746094 C 155.199219 299.332031 155.847656 299.148438 155.929688 299.558594 C 157.683594 305.710938 159.605469 312.679688 158.511719 319.136719 C 163.386719 322.472656 168.554688 324.953125 174.019531 326.808594 C 174.03125 326.71875 174.089844 326.59375 174.152344 326.46875 C 179.761719 318.488281 177.191406 308.941406 176.070312 299.933594 C 176.011719 299.34375 176.820312 299.269531 176.929688 299.816406 C 178.648438 308.367188 182.042969 319.804688 175.441406 327.210938 C 176.808594 327.648438 178.191406 328.003906 179.660156 328.371094 C 180.738281 328.636719 180.707031 329.925781 179.6875 330.242188 C 172.546875 332.058594 164.4375 326.480469 158.644531 322.984375 C 154.882812 320.683594 151.316406 317.914062 148.90625 314.085938 C 146.421875 310.164062 146 305.433594 143.605469 301.519531 C 141.207031 297.605469 137.574219 294.648438 135.425781 290.542969 C 133.851562 287.492188 133.078125 284.144531 133.078125 280.667969 C 133.023438 273.753906 135.25 266.417969 137.917969 260.160156 C 138.246094 259.355469 139.480469 259.824219 139.191406 260.679688 C 137.058594 267.625 134.546875 274.390625 135.46875 281.816406 Z M 220.984375 334.859375 C 217.613281 338.261719 211.8125 337.613281 207.519531 337.382812 C 205.929688 337.269531 204.1875 336.957031 202.613281 337.070312 C 198.851562 337.21875 198.496094 338.597656 195.867188 340.003906 C 194.191406 340.902344 192.347656 341.382812 190.386719 341.402344 C 188.105469 341.425781 185.6875 340.851562 183.902344 339.46875 C 176.636719 341.933594 169.097656 338.835938 163.207031 334.390625 C 154.714844 327.925781 147.363281 319.550781 139.808594 312.039062 C 133.4375 305.753906 126.285156 298.964844 124.234375 289.882812 C 122.441406 281.945312 125.25 272.5 129.867188 266 C 130.785156 264.734375 132.453125 265.972656 132.074219 267.21875 C 129.6875 275.78125 124.925781 282.707031 128.304688 291.871094 C 131.09375 299.351562 137.355469 305.089844 142.851562 310.558594 C 149.136719 316.835938 155.238281 323.488281 161.78125 329.488281 C 167.691406 334.871094 174.527344 338.902344 182.492188 337.949219 C 182.222656 337.605469 182.042969 337.269531 181.824219 336.886719 C 181.582031 336.363281 182.207031 335.640625 182.75 335.933594 C 184.84375 337 186.800781 338.410156 189.167969 338.707031 C 193.289062 339.230469 194.980469 336.816406 198.257812 335.226562 C 201.199219 333.820312 204.703125 334.664062 207.792969 334.875 C 209.46875 335 211.199219 335.085938 212.808594 335.023438 C 215.410156 334.90625 218.894531 333.789062 220.359375 331.390625 C 221.324219 329.773438 220.90625 327.09375 221.40625 325.285156 C 222.40625 321.980469 224.75 319.695312 228.074219 318.777344 C 228.582031 318.621094 229.195312 319.414062 228.625 319.695312 C 224.140625 322.378906 223.699219 325.488281 223.015625 330.125 C 222.742188 331.917969 222.265625 333.546875 220.984375 334.859375 Z M 241.957031 328.023438 C 240.667969 329.734375 238.75 329.402344 236.953125 328.816406 C 233.535156 327.667969 229.628906 326.507812 226.460938 324.769531 C 225.671875 324.355469 225.859375 322.863281 226.898438 323.085938 C 229.109375 323.589844 231.171875 324.519531 233.300781 325.324219 C 234.53125 325.792969 238.0625 327.800781 239.78125 327.257812 C 238.617188 325.550781 238.484375 323.441406 239.484375 321.5625 C 239.726562 321.058594 240.339844 321.136719 240.609375 321.484375 C 239.914062 317.832031 234.863281 316.210938 231.746094 315.144531 C 228.199219 313.9375 224.632812 313.621094 220.9375 313.238281 C 220.410156 313.175781 220.386719 312.324219 220.921875 312.304688 C 225.992188 311.699219 231.285156 312.816406 235.917969 314.917969 C 238.992188 316.332031 242.671875 318.222656 242.355469 322.105469 C 242.28125 323.03125 240.71875 323.054688 240.703125 322.117188 C 240.703125 322.117188 240.664062 322.066406 240.714844 322.03125 C 240.191406 323.703125 240.589844 325.449219 241.859375 326.675781 C 242.175781 326.984375 242.324219 327.582031 241.957031 328.023438 Z M 97.78125 254.492188 C 92.8125 260.234375 84.792969 263.359375 77.402344 264.027344 C 75.28125 264.246094 71.136719 264.925781 69.488281 263.199219 C 67.875 261.527344 70.40625 258.460938 69.558594 257.0625 C 69.359375 257.214844 69.171875 257.28125 68.898438 257.335938 C 58.421875 258.414062 48.671875 251.023438 40.789062 245.039062 C 35.503906 241.070312 30.0625 236.90625 25.96875 231.617188 C 21.75 226.269531 19.511719 219.703125 15.492188 214.203125 C 15.035156 213.613281 15.925781 212.921875 16.433594 213.476562 C 20.511719 217.824219 23.152344 222.972656 26.6875 227.742188 C 30.527344 232.910156 35.441406 237.003906 40.566406 240.863281 C 49.417969 247.601562 57.609375 253.273438 68.90625 254.484375 C 69.695312 254.585938 70.066406 255.164062 70.125 255.75 C 71.207031 256.335938 71.324219 256.484375 71.683594 257.867188 C 72.082031 259.296875 71.164062 259.136719 71.835938 260.515625 C 72.828125 262.511719 75.078125 261.636719 77.152344 261.457031 C 84.65625 260.625 90.277344 257.058594 96.292969 252.875 C 97.171875 252.277344 98.617188 253.527344 97.78125 254.492188 Z M 174.113281 109.246094 C 174.535156 109.789062 174.957031 110.335938 175.414062 110.925781 C 175.785156 111.507812 176.34375 112.023438 176.675781 112.558594 C 176.714844 112.605469 176.789062 112.703125 176.828125 112.753906 C 174.933594 118.171875 173.332031 123.761719 172.292969 129.464844 C 172.234375 129.902344 172.277344 130.265625 172.457031 130.601562 C 171.707031 132.289062 171.046875 133.984375 170.382812 135.683594 C 170.816406 128.789062 171.378906 121.953125 172.3125 114.988281 C 172.589844 112.792969 172.917969 110.566406 173.160156 108.324219 C 173.492188 108.542969 173.808594 108.851562 174.113281 109.246094 Z M 117.058594 45.46875 C 121.875 43.71875 126.167969 40.785156 131.492188 41.328125 C 138.480469 42.082031 144.390625 46.75 151.300781 48.117188 C 151.355469 48.390625 151.496094 48.679688 151.824219 48.894531 C 159.484375 54.1875 165.015625 60.417969 168.261719 69.203125 C 171.273438 77.382812 171.792969 86.226562 171.410156 94.824219 C 170.796875 109.761719 166.675781 125.277344 168.6875 140.238281 C 167.835938 142.714844 167.074219 145.203125 166.386719 147.789062 C 164.464844 154.808594 163.058594 161.984375 162.355469 169.246094 C 161.613281 176.457031 160.796875 184.597656 162.15625 191.765625 C 162.453125 193.273438 164.921875 193.496094 165.058594 191.730469 C 165.597656 184.359375 164.976562 177.015625 165.777344 169.675781 C 166.574219 162.027344 168 154.363281 170.152344 146.929688 C 174.214844 132.875 180.558594 119.507812 188.957031 107.476562 C 194.023438 100.230469 199.828125 93.523438 205.949219 87.128906 C 211.957031 80.894531 218.226562 73.667969 226.339844 70.152344 C 233.035156 67.257812 240.429688 66.59375 247.308594 64.347656 C 250.097656 63.453125 252.832031 62.285156 255.269531 60.632812 C 256.535156 59.8125 257.929688 57.941406 259.335938 57.40625 C 265.761719 54.878906 263.976562 61.558594 263.359375 63.933594 C 263.109375 64.835938 264.542969 65.152344 264.957031 64.355469 C 266.335938 61.234375 267.574219 55.375 263.152344 54.058594 C 258.816406 52.75 253.882812 58.941406 250.429688 60.511719 C 245.558594 62.699219 240.269531 63.632812 235.035156 64.839844 C 236.851562 62.484375 238.449219 59.75 240.128906 57.421875 C 240.507812 56.890625 239.699219 56.253906 239.316406 56.78125 C 237.132812 59.582031 234.324219 62.390625 232.457031 65.492188 C 231.949219 65.652344 231.449219 65.722656 230.9375 65.878906 C 229.457031 66.316406 227.964844 66.839844 226.558594 67.375 C 229.703125 60.910156 232.8125 52.574219 238.414062 48.160156 C 238.910156 47.777344 238.296875 46.984375 237.800781 47.367188 C 231.308594 52.160156 227.425781 60.933594 224.183594 68.1875 C 224.121094 68.3125 224.109375 68.402344 224.101562 68.488281 C 220.300781 70.324219 216.859375 72.828125 213.542969 75.792969 C 201.820312 86.292969 191.378906 97.933594 183.039062 110.867188 C 191.136719 97.015625 198.714844 82.691406 209.011719 70.449219 C 209.429688 69.96875 208.617188 69.332031 208.199219 69.8125 C 201.226562 77.664062 195.617188 86.351562 190.152344 95.328125 C 188.011719 98.800781 185.601562 102.324219 183.269531 105.949219 C 184.488281 103.03125 185.746094 100.160156 187.089844 97.300781 C 191.886719 86.949219 196.488281 76.039062 204.1875 67.386719 C 211.480469 59.136719 220.859375 50.921875 230.238281 45.164062 C 235.171875 42.132812 241.191406 40 246.960938 41.222656 C 253.121094 42.539062 257.003906 47.753906 257.019531 53.90625 C 256.984375 54.878906 258.472656 54.757812 258.621094 53.929688 C 260.652344 44.296875 250.789062 37.785156 242.152344 38.074219 C 229.492188 38.472656 218.472656 49.375 209.585938 57.203125 C 204.5625 61.644531 199.847656 66.480469 196.101562 72.066406 C 192.398438 77.703125 189.554688 83.933594 186.644531 89.984375 C 183.367188 96.785156 180.207031 103.734375 177.613281 110.804688 C 177.558594 110.527344 177.492188 110.34375 177.351562 110.058594 C 176.992188 109.386719 176.59375 108.671875 176.097656 108.027344 C 175.496094 107.148438 174.675781 105.886719 173.605469 105.527344 C 174.296875 99.78125 174.761719 94.046875 174.660156 88.195312 C 174.414062 72.660156 168.824219 53.277344 153.253906 46.449219 C 152.785156 46.257812 152.375 46.335938 152.03125 46.605469 C 143.304688 44.429688 135.816406 37.109375 126.34375 39.070312 C 121.167969 40.152344 116.042969 42.621094 110.988281 44.164062 C 106.15625 45.6875 104.152344 48.820312 102.285156 53.351562 C 101.574219 55.089844 104.324219 56.195312 105 54.410156 C 106.386719 50.886719 108.019531 48.199219 111.753906 46.890625 C 113.421875 46.386719 115.242188 46.085938 117.058594 45.46875 Z M 89.078125 89.417969 C 86.410156 82.398438 89.375 74.171875 94.136719 67.246094 C 94.148438 67.160156 94.074219 67.058594 94.082031 66.972656 C 93.988281 66.335938 94.519531 66.003906 95.007812 66.019531 C 98.351562 61.453125 102.472656 57.476562 106.046875 54.945312 C 109.03125 52.871094 112.273438 51.546875 115.878906 50.886719 C 120.566406 50.101562 124.351562 48.753906 128.695312 46.808594 C 133.851562 44.480469 139.269531 42.894531 144.371094 46.214844 C 145.152344 46.710938 144.304688 47.765625 143.511719 47.351562 C 136.660156 43.410156 129.996094 49.203125 123.96875 51.734375 C 120.4375 53.203125 116.917969 53.558594 113.496094 54.550781 C 119.1875 72.117188 124.824219 89.71875 130.464844 107.320312 C 133.339844 116.238281 136.199219 125.246094 139.023438 134.207031 C 141.714844 142.789062 144.035156 151.503906 147.84375 159.695312 C 148.0625 160.078125 147.453125 160.3125 147.234375 159.929688 C 138.964844 143.734375 134.414062 125.289062 128.816406 108.046875 C 123.085938 90.433594 117.355469 72.820312 111.675781 55.167969 C 110.136719 55.730469 108.609375 56.515625 107.136719 57.574219 C 102.894531 60.78125 99.066406 64.929688 96.328125 69.664062 C 97.453125 76.53125 99.21875 83.308594 101.730469 89.820312 C 104.097656 96.046875 107.324219 101.847656 110.164062 107.867188 C 112.851562 113.6875 113.625 119.175781 114.195312 125.53125 C 114.878906 132.746094 116.785156 139.804688 119.871094 146.34375 C 120.050781 146.679688 119.480469 146.964844 119.261719 146.578125 C 116.320312 140.636719 114.191406 134.621094 113.207031 128.035156 C 112.117188 120.5 111.394531 113.945312 107.953125 107.050781 C 102.28125 95.636719 97.410156 84.550781 94.976562 72.210938 C 92.4375 77.414062 91.050781 83.070312 91.511719 88.878906 C 91.65625 90.191406 89.613281 90.824219 89.078125 89.417969 Z M 302.894531 216.117188 C 302.410156 217.125 301.664062 218.410156 301.332031 219.617188 C 297.476562 217.703125 293.476562 216.214844 289.175781 215.355469 C 280.398438 213.621094 271.449219 213.910156 263.214844 210.328125 C 266.910156 209.996094 270.558594 209.699219 274.273438 209.589844 C 284.421875 209.320312 294.625 211.769531 304.773438 212.210938 C 303.992188 213.449219 303.5 214.859375 302.894531 216.117188 Z M 318.070312 209.976562 C 303.214844 211.523438 288.835938 206.847656 274.03125 206.929688 C 266.140625 206.957031 258.238281 207.78125 250.394531 208.480469 C 241.476562 209.21875 232.074219 209.230469 223.382812 210.980469 C 221.960938 211.289062 221.796875 213.628906 223.398438 213.65625 C 225.3125 213.675781 227.226562 213.695312 229.160156 213.539062 C 229.128906 213.804688 229.308594 214.136719 229.695312 214.230469 C 238.277344 216.121094 246.378906 220.042969 255.054688 221.546875 C 264.042969 223.042969 273.316406 220.207031 282.078125 223.148438 C 282.71875 223.359375 283.105469 222.429688 282.472656 222.125 C 274.039062 219.097656 265.429688 221.257812 256.710938 220.105469 C 248.726562 219.09375 241.378906 214.511719 233.46875 213.285156 C 238.96875 212.820312 244.496094 212.097656 249.902344 211.625 C 253.289062 211.296875 256.671875 210.96875 260.054688 210.636719 C 260.132812 210.738281 260.210938 210.835938 260.285156 210.9375 C 266.3125 215.042969 273.453125 215.992188 280.457031 216.96875 C 289.917969 218.261719 298.035156 220.667969 306.09375 225.96875 C 309.375 228.167969 312.972656 230.359375 315.929688 233.050781 C 320.035156 236.828125 316.589844 241.46875 316.507812 245.957031 C 316.320312 252.660156 320.257812 259.179688 318.785156 265.851562 C 318.554688 265.554688 318.363281 265.308594 318.132812 265.011719 C 315.679688 261.539062 313.488281 258.097656 310.394531 255.121094 C 297.3125 242.410156 278.425781 239.882812 260.96875 239.808594 C 260.253906 239.804688 260.019531 240.933594 260.820312 240.949219 C 274.171875 241.4375 288.007812 243.371094 299.53125 250.488281 C 303.582031 252.964844 307.117188 255.996094 310.132812 259.585938 C 302.945312 258.675781 296.175781 257.59375 289.089844 255.492188 C 282.648438 253.605469 276.175781 251.582031 269.550781 250.785156 C 261.957031 249.867188 255.007812 251.617188 247.597656 253.082031 C 238.035156 255.03125 228.71875 254.03125 220.335938 248.824219 C 219.882812 248.542969 219.441406 249.199219 219.859375 249.429688 C 225.867188 253.3125 232.578125 255.546875 239.765625 255.433594 C 249.109375 255.234375 257.851562 251.308594 267.328125 252.109375 C 275.269531 252.757812 282.859375 255.414062 290.511719 257.632812 C 297.042969 259.53125 304.453125 261.851562 311.378906 260.992188 C 312.03125 261.832031 312.683594 262.671875 313.273438 263.640625 C 315.027344 266.308594 316.628906 269.101562 318.976562 271.3125 C 319.890625 272.183594 327.070312 278.085938 324.9375 280.132812 C 324.929688 279.820312 324.699219 279.523438 324.300781 279.519531 C 314.828125 279.03125 305.988281 278.132812 297.007812 274.808594 C 296.363281 274.59375 296.03125 275.488281 296.621094 275.742188 C 304.503906 279.28125 313.515625 281.628906 322.226562 281.125 C 321.460938 281.875 321.648438 283.546875 322.972656 283.625 C 327.582031 283.855469 329.683594 278.90625 327.636719 275.039062 C 326.246094 272.324219 323.640625 270.390625 321.234375 268.300781 C 321.234375 268.300781 321.285156 268.261719 321.246094 268.214844 C 324.222656 260.925781 319.882812 254.09375 319.746094 246.769531 C 319.664062 242.882812 322.496094 239.1875 321.476562 235.316406 C 320.46875 231.667969 316.796875 229.375 313.902344 227.269531 C 310.679688 224.945312 307.433594 222.796875 303.976562 220.886719 C 304.824219 219.835938 305.289062 218.289062 305.621094 217.085938 C 306.085938 215.539062 306.484375 213.808594 306.25 212.175781 C 310.289062 212.285156 314.289062 212.035156 318.328125 211.125 C 318.960938 211.027344 318.882812 209.902344 318.070312 209.976562 " fill-opacity="1" fill-rule="nonzero"/></g></g></g></g></g></svg>