<svg xmlns="http://www.w3.org/2000/svg" xmlns:xlink="http://www.w3.org/1999/xlink" width="500" zoomAndPan="magnify" viewBox="0 0 375 374.999991" height="500" preserveAspectRatio="xMidYMid meet" version="1.0"><defs><g/><clipPath id="0abc9a14d0"><path d="M 21 21 L 354 21 L 354 354 L 21 354 Z M 21 21 " clip-rule="nonzero"/></clipPath><clipPath id="33b33df799"><path d="M 257.382812 -36.910156 L 410.019531 263.261719 L 117.867188 411.816406 L -34.765625 111.648438 Z M 257.382812 -36.910156 " clip-rule="nonzero"/></clipPath><clipPath id="755935a999"><path d="M 257.382812 -36.910156 L 410.019531 263.261719 L 117.867188 411.816406 L -34.765625 111.648438 Z M 257.382812 -36.910156 " clip-rule="nonzero"/></clipPath><clipPath id="b5c34d6163"><path d="M 257.382812 -36.910156 L 410.019531 263.261719 L 117.867188 411.816406 L -34.765625 111.648438 Z M 257.382812 -36.910156 " clip-rule="nonzero"/></clipPath><clipPath id="18a9791dd4"><path d="M 310.667969 79.808594 C 249.414062 9.78125 144.375 1.148438 76.519531 60.558594 C 61.859375 73.390625 49.96875 88.652344 40.882812 105.777344 L 41.316406 106.003906 L 40.882812 105.777344 C 25.316406 135.105469 19.179688 168.417969 23.125 202.109375 C 27.160156 236.550781 41.523438 268.738281 64.664062 295.191406 C 125.859375 365.152344 230.796875 373.78125 298.582031 314.425781 C 366.441406 255.015625 371.925781 149.835938 310.667969 79.808594 Z M 58.816406 263.757812 C 61.410156 266.71875 63.675781 269.039062 65.378906 270.6875 C 76.742188 281.675781 92.441406 282.523438 109.066406 283.417969 C 128.265625 284.449219 150.03125 285.625 168.746094 303.046875 C 184.59375 317.804688 200.15625 330.722656 217.753906 336.597656 C 199.910156 331.28125 184.21875 319.171875 168.773438 305.730469 C 150.15625 289.519531 128.867188 287.65625 110.085938 286.007812 C 93.234375 284.535156 77.316406 283.140625 65.816406 271.824219 C 55.558594 261.730469 45.914062 248.632812 38.546875 233.292969 C 45.195312 246.71875 52.863281 256.957031 58.816406 263.757812 Z M 51.550781 253.246094 C 53.875 256.367188 56.121094 259.121094 58.175781 261.46875 C 61.0625 264.769531 63.574219 267.300781 65.421875 269.050781 C 76.503906 279.566406 91.914062 279.875 108.226562 280.203125 C 127.925781 280.597656 150.25 281.042969 169.167969 299.839844 C 184.703125 315.277344 199.113281 328.660156 216.296875 335.335938 C 199.46875 329.265625 184.472656 316.769531 169.203125 302.550781 C 150.308594 284.957031 128.410156 283.78125 109.09375 282.742188 C 92.601562 281.851562 77.027344 281.015625 65.84375 270.203125 C 63.949219 268.363281 58.183594 262.523438 51.550781 253.246094 Z M 168.34375 308.902344 C 150.066406 294.066406 129.433594 291.566406 111.234375 289.363281 C 93.964844 287.28125 77.65625 285.300781 65.789062 273.445312 C 56.554688 264.210938 47.839844 252.515625 40.808594 238.976562 C 47.113281 250.789062 54.027344 259.859375 59.402344 266.003906 C 61.726562 268.660156 63.761719 270.769531 65.328125 272.3125 C 77.007812 283.808594 93.050781 285.210938 110.027344 286.699219 C 128.699219 288.335938 149.867188 290.1875 168.316406 306.246094 C 184.183594 320.0625 200.3125 332.472656 218.742188 337.636719 C 200.03125 333.039062 183.757812 321.414062 168.339844 308.898438 Z M 219.347656 338.546875 C 199.886719 334.625 183.121094 323.566406 167.910156 312.078125 C 150.066406 298.601562 131.007812 295.671875 112.574219 292.835938 C 94.8125 290.105469 78.039062 287.527344 65.757812 275.066406 C 56.542969 265.71875 47.851562 253.9375 40.832031 240.332031 C 47.34375 252.625 54.496094 262 59.941406 268.222656 C 62.011719 270.59375 63.839844 272.507812 65.289062 273.953125 C 77.328125 285.992188 93.761719 287.980469 111.152344 290.082031 C 130.144531 292.378906 149.78125 294.757812 167.894531 309.460938 C 183.605469 322.222656 200.207031 334.050781 219.347656 338.550781 Z M 60.132812 270.089844 C 61.789062 271.988281 63.496094 273.820312 65.230469 275.585938 C 77.6875 288.214844 94.578125 290.816406 112.460938 293.5625 C 130.804688 296.386719 149.773438 299.300781 167.464844 312.667969 C 181.691406 323.410156 198.617188 334.6875 217.851562 339.027344 C 199.554688 335.558594 183.03125 326.152344 167.472656 315.257812 C 150.160156 303.128906 131.855469 299.730469 114.152344 296.4375 C 95.808594 293.03125 78.488281 289.808594 65.722656 276.691406 C 55.625 266.316406 46.132812 253.050781 38.800781 237.65625 C 44.570312 249.523438 51.828125 260.601562 60.132812 270.097656 Z M 60.589844 272.230469 C 62.085938 273.941406 63.621094 275.609375 65.183594 277.214844 C 78.117188 290.507812 95.558594 293.75 114.019531 297.179688 C 131.644531 300.457031 149.863281 303.84375 167.042969 315.875 C 182 326.34375 202.085938 338.664062 224.90625 340.976562 C 225.941406 341.082031 226.984375 341.140625 228.023438 341.203125 C 205.523438 340.4375 185.625 330.449219 167.046875 318.429688 C 150.386719 307.648438 132.933594 303.867188 116.050781 300.207031 C 97.011719 296.078125 79.027344 292.179688 65.703125 278.308594 C 55.835938 268.042969 46.5625 255.019531 39.289062 239.964844 C 45.085938 251.753906 52.316406 262.765625 60.59375 272.226562 Z M 62.449219 282.601562 C 63.273438 283.539062 64.105469 284.464844 64.945312 285.382812 C 82.175781 304.105469 105.015625 311.351562 129.195312 319.019531 C 140.941406 322.746094 153.089844 326.59375 164.941406 331.910156 C 188.875 342.640625 211.5625 346.738281 233.316406 344.183594 C 211.617188 347.273438 188.898438 343.96875 164.851562 334.304688 C 155.222656 330.4375 145.40625 327.195312 135.910156 324.066406 C 109.386719 315.3125 84.335938 307.046875 65.546875 286.433594 C 61.261719 281.738281 57.1875 276.609375 53.375 271.140625 C 56.230469 275.117188 59.25 278.953125 62.445312 282.609375 Z M 52.589844 268.472656 C 55.554688 272.65625 58.71875 276.675781 62.0625 280.5 C 63.023438 281.597656 64.003906 282.6875 64.992188 283.753906 C 80.945312 300.914062 102.109375 307.207031 124.515625 313.875 C 137.957031 317.875 151.863281 322.007812 165.363281 328.707031 C 185.621094 338.757812 204.71875 343.859375 223.121094 344.007812 C 204.605469 344.433594 185.390625 340.140625 165.292969 331.132812 C 153.394531 325.796875 141.222656 321.9375 129.457031 318.203125 C 105.386719 310.570312 82.652344 303.363281 65.578125 284.808594 C 60.988281 279.820312 56.636719 274.355469 52.585938 268.476562 Z M 60.832031 274.15625 C 62.238281 275.757812 63.671875 277.324219 65.136719 278.851562 C 78.628906 292.894531 96.722656 296.816406 115.882812 300.96875 C 132.695312 304.613281 150.082031 308.382812 166.621094 319.082031 C 188.988281 333.554688 207.179688 340.546875 225.59375 341.742188 C 203.519531 340.96875 184.011719 331.964844 166.609375 321.601562 C 150.761719 312.167969 134.277344 308.109375 118.339844 304.191406 C 98.449219 299.296875 79.664062 294.671875 65.671875 279.9375 C 59.070312 272.992188 52.746094 264.804688 47.097656 255.628906 C 51.222656 262.210938 55.820312 268.425781 60.835938 274.160156 Z M 61.261719 276.28125 C 62.507812 277.710938 63.789062 279.117188 65.089844 280.484375 C 79.242188 295.390625 98.140625 300.039062 118.148438 304.964844 C 134.027344 308.871094 150.449219 312.914062 166.199219 322.289062 C 187.925781 335.226562 206.667969 341.640625 225.015625 342.441406 C 202.511719 342.15625 182.792969 333.839844 166.171875 324.777344 C 151.332031 316.6875 135.996094 312.5 121.171875 308.445312 C 100.222656 302.71875 80.4375 297.3125 65.640625 281.558594 C 60.003906 275.5625 54.714844 268.832031 49.925781 261.492188 C 53.417969 266.6875 57.195312 271.640625 61.261719 276.28125 Z M 61.667969 278.390625 C 62.769531 279.65625 63.898438 280.894531 65.042969 282.113281 C 79.992188 298.039062 99.886719 303.476562 120.953125 309.230469 C 135.738281 313.273438 151.019531 317.453125 165.78125 325.492188 C 181.191406 333.894531 199.242188 341.664062 219.695312 343.066406 C 202.46875 342.351562 184.609375 337.3125 165.734375 327.953125 C 152.171875 321.222656 138.234375 317.082031 124.757812 313.066406 C 102.464844 306.4375 81.410156 300.171875 65.613281 283.175781 C 60.683594 277.875 56.039062 272 51.742188 265.671875 C 54.84375 270.109375 58.152344 274.367188 61.675781 278.394531 Z M 62.828125 284.695312 C 63.511719 285.476562 64.203125 286.25 64.898438 287.015625 C 83.847656 307.800781 109.007812 316.101562 135.636719 324.890625 C 145.121094 328.019531 154.925781 331.253906 164.527344 335.117188 C 185.054688 343.363281 204.625 346.996094 223.425781 346.015625 C 204.5 347.570312 184.796875 344.738281 164.417969 337.472656 C 158.085938 335.214844 151.640625 333.078125 145.410156 331.007812 C 115.261719 321.015625 86.792969 311.578125 65.527344 288.042969 C 59.738281 281.640625 54.554688 274.832031 49.949219 267.726562 C 53.878906 273.683594 58.179688 279.367188 62.832031 284.695312 Z M 63.203125 286.792969 C 63.746094 287.417969 64.300781 288.039062 64.855469 288.648438 C 86.285156 312.363281 114.863281 321.835938 145.121094 331.871094 C 151.351562 333.933594 157.792969 336.074219 164.117188 338.324219 C 184.667969 345.652344 204.523438 348.5 223.601562 346.917969 C 204.390625 349.074219 184.390625 347.023438 163.976562 340.652344 L 160.917969 339.699219 C 126.402344 328.941406 90.710938 317.816406 65.496094 289.671875 C 65.066406 289.191406 64.648438 288.71875 64.222656 288.234375 C 59.746094 283.121094 55.652344 277.753906 51.902344 272.210938 C 55.398438 277.292969 59.164062 282.179688 63.207031 286.800781 Z M 63.507812 288.816406 C 63.9375 289.308594 64.371094 289.800781 64.808594 290.289062 C 90.195312 318.628906 126.003906 329.789062 160.640625 340.582031 L 163.699219 341.535156 C 184.238281 347.945312 204.359375 350.011719 223.683594 347.84375 C 204.21875 350.597656 183.949219 349.316406 163.527344 343.828125 C 130.140625 334.859375 92.386719 321.601562 65.460938 291.292969 C 65.171875 290.972656 64.898438 290.65625 64.617188 290.335938 C 61.578125 286.863281 58.71875 283.28125 56.011719 279.605469 C 58.390625 282.753906 60.890625 285.828125 63.5 288.8125 Z M 65.40625 294.539062 C 62.394531 291.097656 59.550781 287.550781 56.855469 283.917969 C 59.257812 287.085938 61.769531 290.1875 64.410156 293.199219 L 64.71875 293.550781 C 88.304688 320.25 121.328125 338.546875 162.882812 347.945312 C 182.476562 352.378906 201.859375 353.175781 220.492188 350.511719 C 165.320312 359.992188 105.792969 340.699219 65.414062 294.542969 Z M 163.085938 347.007812 C 121.734375 337.65625 88.878906 319.457031 65.4375 292.917969 L 65.140625 292.582031 C 62.207031 289.222656 59.429688 285.769531 56.789062 282.230469 C 59.058594 285.203125 61.417969 288.109375 63.894531 290.9375 C 64.179688 291.265625 64.46875 291.589844 64.761719 291.917969 C 91.855469 322.414062 129.769531 335.738281 163.285156 344.742188 C 187.113281 351.144531 210.738281 351.859375 233.128906 347.148438 C 210.777344 352.386719 187.089844 352.4375 163.085938 347.007812 Z M 296.417969 314.976562 C 296.148438 315.203125 295.878906 315.429688 295.609375 315.652344 C 295.3125 315.894531 295.015625 316.144531 294.71875 316.386719 C 294.46875 316.589844 294.222656 316.792969 293.96875 316.988281 C 293.710938 317.191406 293.453125 317.40625 293.195312 317.605469 C 292.984375 317.773438 292.769531 317.929688 292.558594 318.089844 C 292.265625 318.316406 291.96875 318.53125 291.679688 318.753906 C 291.636719 318.789062 291.589844 318.824219 291.546875 318.855469 C 290.945312 319.300781 290.347656 319.734375 289.746094 320.164062 C 289.71875 320.183594 289.691406 320.203125 289.664062 320.222656 C 288.753906 320.863281 287.851562 321.488281 286.945312 322.097656 C 286.78125 322.210938 286.609375 322.328125 286.441406 322.441406 C 285.957031 322.757812 285.460938 323.105469 284.972656 323.421875 C 284.84375 323.503906 284.71875 323.578125 284.589844 323.664062 C 283.285156 324.496094 281.992188 325.277344 280.703125 326.039062 C 280.257812 326.300781 279.816406 326.5625 279.371094 326.816406 C 278.429688 327.359375 277.488281 327.875 276.558594 328.382812 C 275.835938 328.769531 275.117188 329.144531 274.402344 329.515625 C 274.3125 329.558594 274.222656 329.605469 274.132812 329.652344 C 273.921875 329.757812 273.71875 329.859375 273.507812 329.964844 C 224.652344 354.042969 195.605469 325.183594 169.636719 299.375 C 150.535156 280.390625 128.066406 279.941406 108.242188 279.542969 C 92.058594 279.222656 76.773438 278.914062 65.878906 268.578125 C 60.511719 263.484375 24.214844 226.914062 24.8125 170.867188 C 24.945312 163.710938 25.636719 156.367188 26.992188 148.871094 C 27.046875 148.574219 27.097656 148.28125 27.15625 147.980469 C 27.386719 146.738281 27.660156 145.476562 27.929688 144.226562 C 28.191406 143.039062 28.445312 141.851562 28.738281 140.664062 C 28.859375 140.164062 28.992188 139.664062 29.117188 139.164062 C 29.574219 137.371094 30.050781 135.582031 30.578125 133.789062 C 30.578125 133.789062 30.578125 133.789062 30.582031 133.78125 C 31.160156 131.808594 31.796875 129.835938 32.46875 127.859375 C 32.546875 127.632812 32.621094 127.40625 32.703125 127.183594 C 33.253906 125.585938 33.84375 123.992188 34.457031 122.398438 C 34.726562 121.699219 34.996094 121 35.277344 120.296875 C 35.5625 119.578125 35.871094 118.867188 36.171875 118.148438 C 36.296875 117.847656 36.421875 117.539062 36.550781 117.238281 C 36.609375 117.105469 36.664062 116.96875 36.71875 116.835938 C 37.128906 115.894531 37.53125 114.945312 37.957031 114.011719 C 38.015625 113.894531 38.058594 113.78125 38.109375 113.660156 C 38.140625 113.59375 38.171875 113.527344 38.203125 113.464844 C 38.335938 113.1875 38.46875 112.90625 38.597656 112.628906 C 38.921875 111.929688 39.265625 111.230469 39.605469 110.527344 C 39.679688 110.375 39.753906 110.21875 39.828125 110.066406 C 39.976562 109.769531 40.121094 109.472656 40.269531 109.175781 C 40.386719 108.949219 40.496094 108.71875 40.613281 108.492188 C 40.996094 107.742188 41.359375 106.984375 41.753906 106.234375 C 50.765625 89.253906 62.847656 74.269531 77.378906 61.542969 C 144.695312 2.609375 248.902344 11.1875 309.683594 80.671875 C 370.464844 150.152344 365.253906 254.753906 297.941406 313.6875 C 297.441406 314.125 296.925781 314.550781 296.421875 314.984375 Z M 296.417969 314.976562 " clip-rule="nonzero"/></clipPath><linearGradient x1="-153.4905" gradientTransform="matrix(0.218654, 0.430002, -0.429588, 0.218444, 257.330808, -36.883999)" y1="339.92001" x2="866.494939" gradientUnits="userSpaceOnUse" y2="339.92001" id="2bbe8a3478"><stop stop-opacity="1" stop-color="rgb(74.099731%, 39.599609%, 7.499695%)" offset="0"/><stop stop-opacity="1" stop-color="rgb(74.099731%, 39.599609%, 7.499695%)" offset="0.0625"/><stop stop-opacity="1" stop-color="rgb(74.099731%, 39.599609%, 7.499695%)" offset="0.078125"/><stop stop-opacity="1" stop-color="rgb(74.099731%, 39.599609%, 7.499695%)" offset="0.0859375"/><stop stop-opacity="1" stop-color="rgb(74.27063%, 39.898682%, 7.743835%)" offset="0.0898438"/><stop stop-opacity="1" stop-color="rgb(74.443054%, 40.197754%, 7.987976%)" offset="0.09375"/><stop stop-opacity="1" stop-color="rgb(75.001526%, 41.169739%, 8.779907%)" offset="0.0976563"/><stop stop-opacity="1" stop-color="rgb(75.559998%, 42.141724%, 9.573364%)" offset="0.101563"/><stop stop-opacity="1" stop-color="rgb(76.116943%, 43.113708%, 10.366821%)" offset="0.105469"/><stop stop-opacity="1" stop-color="rgb(76.675415%, 44.085693%, 11.160278%)" offset="0.109375"/><stop stop-opacity="1" stop-color="rgb(77.233887%, 45.057678%, 11.953735%)" offset="0.113281"/><stop stop-opacity="1" stop-color="rgb(77.792358%, 46.029663%, 12.747192%)" offset="0.117188"/><stop stop-opacity="1" stop-color="rgb(78.35083%, 47.001648%, 13.539124%)" offset="0.121094"/><stop stop-opacity="1" stop-color="rgb(78.909302%, 47.975159%, 14.332581%)" offset="0.125"/><stop stop-opacity="1" stop-color="rgb(79.467773%, 48.947144%, 15.126038%)" offset="0.128906"/><stop stop-opacity="1" stop-color="rgb(80.026245%, 49.919128%, 15.919495%)" offset="0.132813"/><stop stop-opacity="1" stop-color="rgb(80.583191%, 50.891113%, 16.712952%)" offset="0.136719"/><stop stop-opacity="1" stop-color="rgb(81.141663%, 51.863098%, 17.506409%)" offset="0.140625"/><stop stop-opacity="1" stop-color="rgb(81.700134%, 52.835083%, 18.29834%)" offset="0.144531"/><stop stop-opacity="1" stop-color="rgb(82.258606%, 53.807068%, 19.091797%)" offset="0.148438"/><stop stop-opacity="1" stop-color="rgb(82.817078%, 54.779053%, 19.885254%)" offset="0.152344"/><stop stop-opacity="1" stop-color="rgb(83.375549%, 55.751038%, 20.678711%)" offset="0.15625"/><stop stop-opacity="1" stop-color="rgb(83.932495%, 56.723022%, 21.472168%)" offset="0.160156"/><stop stop-opacity="1" stop-color="rgb(84.490967%, 57.695007%, 22.265625%)" offset="0.164063"/><stop stop-opacity="1" stop-color="rgb(85.049438%, 58.666992%, 23.057556%)" offset="0.167969"/><stop stop-opacity="1" stop-color="rgb(85.60791%, 59.638977%, 23.851013%)" offset="0.171875"/><stop stop-opacity="1" stop-color="rgb(86.166382%, 60.610962%, 24.64447%)" offset="0.175781"/><stop stop-opacity="1" stop-color="rgb(86.724854%, 61.584473%, 25.437927%)" offset="0.179688"/><stop stop-opacity="1" stop-color="rgb(87.283325%, 62.556458%, 26.231384%)" offset="0.183594"/><stop stop-opacity="1" stop-color="rgb(87.841797%, 63.528442%, 27.024841%)" offset="0.1875"/><stop stop-opacity="1" stop-color="rgb(88.398743%, 64.500427%, 27.816772%)" offset="0.191406"/><stop stop-opacity="1" stop-color="rgb(88.957214%, 65.472412%, 28.610229%)" offset="0.195313"/><stop stop-opacity="1" stop-color="rgb(89.515686%, 66.444397%, 29.403687%)" offset="0.199219"/><stop stop-opacity="1" stop-color="rgb(90.074158%, 67.416382%, 30.197144%)" offset="0.203125"/><stop stop-opacity="1" stop-color="rgb(90.632629%, 68.388367%, 30.990601%)" offset="0.207031"/><stop stop-opacity="1" stop-color="rgb(91.191101%, 69.360352%, 31.784058%)" offset="0.210938"/><stop stop-opacity="1" stop-color="rgb(91.748047%, 70.332336%, 32.575989%)" offset="0.214844"/><stop stop-opacity="1" stop-color="rgb(92.306519%, 71.304321%, 33.369446%)" offset="0.21875"/><stop stop-opacity="1" stop-color="rgb(92.86499%, 72.276306%, 34.162903%)" offset="0.222656"/><stop stop-opacity="1" stop-color="rgb(93.423462%, 73.249817%, 34.95636%)" offset="0.226563"/><stop stop-opacity="1" stop-color="rgb(93.981934%, 74.221802%, 35.749817%)" offset="0.230469"/><stop stop-opacity="1" stop-color="rgb(94.540405%, 75.193787%, 36.543274%)" offset="0.234375"/><stop stop-opacity="1" stop-color="rgb(95.098877%, 76.165771%, 37.335205%)" offset="0.238281"/><stop stop-opacity="1" stop-color="rgb(95.657349%, 77.137756%, 38.128662%)" offset="0.242188"/><stop stop-opacity="1" stop-color="rgb(96.214294%, 78.109741%, 38.922119%)" offset="0.246094"/><stop stop-opacity="1" stop-color="rgb(96.772766%, 79.081726%, 39.715576%)" offset="0.25"/><stop stop-opacity="1" stop-color="rgb(97.331238%, 80.053711%, 40.509033%)" offset="0.253906"/><stop stop-opacity="1" stop-color="rgb(97.889709%, 81.025696%, 41.30249%)" offset="0.257812"/><stop stop-opacity="1" stop-color="rgb(98.448181%, 81.997681%, 42.094421%)" offset="0.261719"/><stop stop-opacity="1" stop-color="rgb(99.006653%, 82.969666%, 42.887878%)" offset="0.265625"/><stop stop-opacity="1" stop-color="rgb(99.443054%, 83.731079%, 43.508911%)" offset="0.269531"/><stop stop-opacity="1" stop-color="rgb(99.880981%, 84.494019%, 44.13147%)" offset="0.273438"/><stop stop-opacity="1" stop-color="rgb(99.34845%, 83.566284%, 43.374634%)" offset="0.277344"/><stop stop-opacity="1" stop-color="rgb(98.815918%, 82.63855%, 42.617798%)" offset="0.28125"/><stop stop-opacity="1" stop-color="rgb(98.28186%, 81.710815%, 41.859436%)" offset="0.285156"/><stop stop-opacity="1" stop-color="rgb(97.749329%, 80.783081%, 41.1026%)" offset="0.289062"/><stop stop-opacity="1" stop-color="rgb(97.216797%, 79.853821%, 40.345764%)" offset="0.292969"/><stop stop-opacity="1" stop-color="rgb(96.684265%, 78.926086%, 39.588928%)" offset="0.296875"/><stop stop-opacity="1" stop-color="rgb(96.150208%, 77.998352%, 38.832092%)" offset="0.300781"/><stop stop-opacity="1" stop-color="rgb(95.617676%, 77.070618%, 38.075256%)" offset="0.304688"/><stop stop-opacity="1" stop-color="rgb(95.085144%, 76.142883%, 37.316895%)" offset="0.308594"/><stop stop-opacity="1" stop-color="rgb(94.552612%, 75.215149%, 36.560059%)" offset="0.3125"/><stop stop-opacity="1" stop-color="rgb(94.020081%, 74.287415%, 35.803223%)" offset="0.316406"/><stop stop-opacity="1" stop-color="rgb(93.487549%, 73.35968%, 35.046387%)" offset="0.320313"/><stop stop-opacity="1" stop-color="rgb(92.953491%, 72.43042%, 34.288025%)" offset="0.324219"/><stop stop-opacity="1" stop-color="rgb(92.420959%, 71.502686%, 33.531189%)" offset="0.328125"/><stop stop-opacity="1" stop-color="rgb(91.888428%, 70.574951%, 32.774353%)" offset="0.332031"/><stop stop-opacity="1" stop-color="rgb(91.355896%, 69.647217%, 32.017517%)" offset="0.335938"/><stop stop-opacity="1" stop-color="rgb(90.821838%, 68.719482%, 31.260681%)" offset="0.339844"/><stop stop-opacity="1" stop-color="rgb(90.289307%, 67.791748%, 30.503845%)" offset="0.34375"/><stop stop-opacity="1" stop-color="rgb(89.756775%, 66.864014%, 29.745483%)" offset="0.347656"/><stop stop-opacity="1" stop-color="rgb(89.224243%, 65.936279%, 28.988647%)" offset="0.351563"/><stop stop-opacity="1" stop-color="rgb(88.690186%, 65.007019%, 28.231812%)" offset="0.355469"/><stop stop-opacity="1" stop-color="rgb(88.157654%, 64.079285%, 27.474976%)" offset="0.359375"/><stop stop-opacity="1" stop-color="rgb(87.625122%, 63.15155%, 26.716614%)" offset="0.363281"/><stop stop-opacity="1" stop-color="rgb(87.09259%, 62.223816%, 25.959778%)" offset="0.367188"/><stop stop-opacity="1" stop-color="rgb(86.558533%, 61.296082%, 25.202942%)" offset="0.371094"/><stop stop-opacity="1" stop-color="rgb(86.026001%, 60.368347%, 24.446106%)" offset="0.375"/><stop stop-opacity="1" stop-color="rgb(85.493469%, 59.440613%, 23.68927%)" offset="0.378906"/><stop stop-opacity="1" stop-color="rgb(84.960938%, 58.512878%, 22.932434%)" offset="0.382813"/><stop stop-opacity="1" stop-color="rgb(84.42688%, 57.583618%, 22.174072%)" offset="0.386719"/><stop stop-opacity="1" stop-color="rgb(83.894348%, 56.655884%, 21.417236%)" offset="0.390625"/><stop stop-opacity="1" stop-color="rgb(83.361816%, 55.728149%, 20.6604%)" offset="0.394531"/><stop stop-opacity="1" stop-color="rgb(82.829285%, 54.800415%, 19.903564%)" offset="0.398438"/><stop stop-opacity="1" stop-color="rgb(82.295227%, 53.872681%, 19.145203%)" offset="0.402344"/><stop stop-opacity="1" stop-color="rgb(81.762695%, 52.944946%, 18.388367%)" offset="0.40625"/><stop stop-opacity="1" stop-color="rgb(81.230164%, 52.017212%, 17.631531%)" offset="0.410156"/><stop stop-opacity="1" stop-color="rgb(80.697632%, 51.089478%, 16.874695%)" offset="0.414063"/><stop stop-opacity="1" stop-color="rgb(80.1651%, 50.161743%, 16.117859%)" offset="0.417969"/><stop stop-opacity="1" stop-color="rgb(79.632568%, 49.234009%, 15.361023%)" offset="0.421875"/><stop stop-opacity="1" stop-color="rgb(79.098511%, 48.304749%, 14.602661%)" offset="0.425781"/><stop stop-opacity="1" stop-color="rgb(78.565979%, 47.377014%, 13.845825%)" offset="0.429688"/><stop stop-opacity="1" stop-color="rgb(78.033447%, 46.44928%, 13.088989%)" offset="0.433594"/><stop stop-opacity="1" stop-color="rgb(77.500916%, 45.521545%, 12.332153%)" offset="0.4375"/><stop stop-opacity="1" stop-color="rgb(76.966858%, 44.593811%, 11.573792%)" offset="0.441406"/><stop stop-opacity="1" stop-color="rgb(76.434326%, 43.666077%, 10.816956%)" offset="0.445313"/><stop stop-opacity="1" stop-color="rgb(75.901794%, 42.738342%, 10.06012%)" offset="0.449219"/><stop stop-opacity="1" stop-color="rgb(75.369263%, 41.810608%, 9.303284%)" offset="0.453125"/><stop stop-opacity="1" stop-color="rgb(74.835205%, 40.881348%, 8.546448%)" offset="0.457031"/><stop stop-opacity="1" stop-color="rgb(74.302673%, 39.953613%, 7.789612%)" offset="0.460938"/><stop stop-opacity="1" stop-color="rgb(74.674988%, 40.602112%, 8.317566%)" offset="0.464844"/><stop stop-opacity="1" stop-color="rgb(75.047302%, 41.25061%, 8.847046%)" offset="0.46875"/><stop stop-opacity="1" stop-color="rgb(75.63324%, 42.271423%, 9.67865%)" offset="0.472656"/><stop stop-opacity="1" stop-color="rgb(76.219177%, 43.292236%, 10.51178%)" offset="0.476563"/><stop stop-opacity="1" stop-color="rgb(76.805115%, 44.311523%, 11.34491%)" offset="0.480469"/><stop stop-opacity="1" stop-color="rgb(77.392578%, 45.332336%, 12.17804%)" offset="0.484375"/><stop stop-opacity="1" stop-color="rgb(77.978516%, 46.353149%, 13.009644%)" offset="0.488281"/><stop stop-opacity="1" stop-color="rgb(78.564453%, 47.373962%, 13.842773%)" offset="0.492188"/><stop stop-opacity="1" stop-color="rgb(79.150391%, 48.394775%, 14.675903%)" offset="0.496094"/><stop stop-opacity="1" stop-color="rgb(79.736328%, 49.415588%, 15.509033%)" offset="0.5"/><stop stop-opacity="1" stop-color="rgb(80.322266%, 50.436401%, 16.342163%)" offset="0.503906"/><stop stop-opacity="1" stop-color="rgb(80.909729%, 51.457214%, 17.175293%)" offset="0.507813"/><stop stop-opacity="1" stop-color="rgb(81.495667%, 52.478027%, 18.006897%)" offset="0.511719"/><stop stop-opacity="1" stop-color="rgb(82.081604%, 53.49884%, 18.840027%)" offset="0.515625"/><stop stop-opacity="1" stop-color="rgb(82.667542%, 54.519653%, 19.673157%)" offset="0.519531"/><stop stop-opacity="1" stop-color="rgb(83.253479%, 55.540466%, 20.506287%)" offset="0.523438"/><stop stop-opacity="1" stop-color="rgb(83.839417%, 56.561279%, 21.339417%)" offset="0.527344"/><stop stop-opacity="1" stop-color="rgb(84.425354%, 57.582092%, 22.172546%)" offset="0.53125"/><stop stop-opacity="1" stop-color="rgb(85.011292%, 58.601379%, 23.00415%)" offset="0.535156"/><stop stop-opacity="1" stop-color="rgb(85.598755%, 59.622192%, 23.83728%)" offset="0.539063"/><stop stop-opacity="1" stop-color="rgb(86.184692%, 60.643005%, 24.67041%)" offset="0.542969"/><stop stop-opacity="1" stop-color="rgb(86.77063%, 61.663818%, 25.50354%)" offset="0.546875"/><stop stop-opacity="1" stop-color="rgb(87.356567%, 62.684631%, 26.33667%)" offset="0.550781"/><stop stop-opacity="1" stop-color="rgb(87.942505%, 63.705444%, 27.1698%)" offset="0.554688"/><stop stop-opacity="1" stop-color="rgb(88.528442%, 64.726257%, 28.001404%)" offset="0.558594"/><stop stop-opacity="1" stop-color="rgb(89.115906%, 65.74707%, 28.834534%)" offset="0.5625"/><stop stop-opacity="1" stop-color="rgb(89.701843%, 66.767883%, 29.667664%)" offset="0.566406"/><stop stop-opacity="1" stop-color="rgb(90.287781%, 67.788696%, 30.500793%)" offset="0.570313"/><stop stop-opacity="1" stop-color="rgb(90.873718%, 68.809509%, 31.333923%)" offset="0.574219"/><stop stop-opacity="1" stop-color="rgb(91.459656%, 69.830322%, 32.167053%)" offset="0.578125"/><stop stop-opacity="1" stop-color="rgb(92.045593%, 70.851135%, 32.998657%)" offset="0.582031"/><stop stop-opacity="1" stop-color="rgb(92.633057%, 71.871948%, 33.831787%)" offset="0.585938"/><stop stop-opacity="1" stop-color="rgb(93.218994%, 72.891235%, 34.664917%)" offset="0.589844"/><stop stop-opacity="1" stop-color="rgb(93.804932%, 73.912048%, 35.498047%)" offset="0.59375"/><stop stop-opacity="1" stop-color="rgb(94.390869%, 74.932861%, 36.329651%)" offset="0.597656"/><stop stop-opacity="1" stop-color="rgb(94.976807%, 75.953674%, 37.162781%)" offset="0.601563"/><stop stop-opacity="1" stop-color="rgb(95.562744%, 76.974487%, 37.995911%)" offset="0.605469"/><stop stop-opacity="1" stop-color="rgb(96.148682%, 77.9953%, 38.829041%)" offset="0.609375"/><stop stop-opacity="1" stop-color="rgb(96.734619%, 79.016113%, 39.66217%)" offset="0.613281"/><stop stop-opacity="1" stop-color="rgb(97.322083%, 80.036926%, 40.4953%)" offset="0.617188"/><stop stop-opacity="1" stop-color="rgb(97.90802%, 81.057739%, 41.326904%)" offset="0.621094"/><stop stop-opacity="1" stop-color="rgb(98.493958%, 82.078552%, 42.160034%)" offset="0.625"/><stop stop-opacity="1" stop-color="rgb(99.079895%, 83.099365%, 42.993164%)" offset="0.628906"/><stop stop-opacity="1" stop-color="rgb(99.665833%, 84.120178%, 43.826294%)" offset="0.632813"/><stop stop-opacity="1" stop-color="rgb(99.337769%, 83.5495%, 43.360901%)" offset="0.636719"/><stop stop-opacity="1" stop-color="rgb(99.01123%, 82.978821%, 42.895508%)" offset="0.640625"/><stop stop-opacity="1" stop-color="rgb(98.321533%, 81.777954%, 41.915894%)" offset="0.644531"/><stop stop-opacity="1" stop-color="rgb(97.631836%, 80.577087%, 40.936279%)" offset="0.648438"/><stop stop-opacity="1" stop-color="rgb(96.942139%, 79.376221%, 39.956665%)" offset="0.652344"/><stop stop-opacity="1" stop-color="rgb(96.252441%, 78.175354%, 38.977051%)" offset="0.65625"/><stop stop-opacity="1" stop-color="rgb(95.562744%, 76.974487%, 37.995911%)" offset="0.660156"/><stop stop-opacity="1" stop-color="rgb(94.874573%, 75.775146%, 37.016296%)" offset="0.664063"/><stop stop-opacity="1" stop-color="rgb(94.184875%, 74.57428%, 36.036682%)" offset="0.667969"/><stop stop-opacity="1" stop-color="rgb(93.495178%, 73.373413%, 35.057068%)" offset="0.671875"/><stop stop-opacity="1" stop-color="rgb(92.805481%, 72.172546%, 34.077454%)" offset="0.675781"/><stop stop-opacity="1" stop-color="rgb(92.115784%, 70.97168%, 33.097839%)" offset="0.679688"/><stop stop-opacity="1" stop-color="rgb(91.426086%, 69.770813%, 32.118225%)" offset="0.683594"/><stop stop-opacity="1" stop-color="rgb(90.736389%, 68.569946%, 31.138611%)" offset="0.6875"/><stop stop-opacity="1" stop-color="rgb(90.046692%, 67.36908%, 30.157471%)" offset="0.691406"/><stop stop-opacity="1" stop-color="rgb(89.356995%, 66.168213%, 29.177856%)" offset="0.695313"/><stop stop-opacity="1" stop-color="rgb(88.667297%, 64.967346%, 28.198242%)" offset="0.699219"/><stop stop-opacity="1" stop-color="rgb(87.9776%, 63.766479%, 27.218628%)" offset="0.703125"/><stop stop-opacity="1" stop-color="rgb(87.287903%, 62.565613%, 26.239014%)" offset="0.707031"/><stop stop-opacity="1" stop-color="rgb(86.598206%, 61.364746%, 25.259399%)" offset="0.710938"/><stop stop-opacity="1" stop-color="rgb(85.908508%, 60.163879%, 24.278259%)" offset="0.714844"/><stop stop-opacity="1" stop-color="rgb(85.218811%, 58.963013%, 23.298645%)" offset="0.71875"/><stop stop-opacity="1" stop-color="rgb(84.529114%, 57.762146%, 22.319031%)" offset="0.722656"/><stop stop-opacity="1" stop-color="rgb(83.839417%, 56.561279%, 21.339417%)" offset="0.726563"/><stop stop-opacity="1" stop-color="rgb(83.149719%, 55.360413%, 20.359802%)" offset="0.730469"/><stop stop-opacity="1" stop-color="rgb(82.461548%, 54.159546%, 19.380188%)" offset="0.734375"/><stop stop-opacity="1" stop-color="rgb(81.771851%, 52.958679%, 18.400574%)" offset="0.738281"/><stop stop-opacity="1" stop-color="rgb(81.082153%, 51.757812%, 17.420959%)" offset="0.742188"/><stop stop-opacity="1" stop-color="rgb(80.392456%, 50.556946%, 16.439819%)" offset="0.746094"/><stop stop-opacity="1" stop-color="rgb(79.702759%, 49.356079%, 15.460205%)" offset="0.75"/><stop stop-opacity="1" stop-color="rgb(79.013062%, 48.155212%, 14.480591%)" offset="0.753906"/><stop stop-opacity="1" stop-color="rgb(78.323364%, 46.954346%, 13.500977%)" offset="0.757813"/><stop stop-opacity="1" stop-color="rgb(77.633667%, 45.753479%, 12.521362%)" offset="0.761719"/><stop stop-opacity="1" stop-color="rgb(76.94397%, 44.552612%, 11.541748%)" offset="0.765625"/><stop stop-opacity="1" stop-color="rgb(76.254272%, 43.351746%, 10.560608%)" offset="0.769531"/><stop stop-opacity="1" stop-color="rgb(75.564575%, 42.150879%, 9.580994%)" offset="0.773438"/><stop stop-opacity="1" stop-color="rgb(74.874878%, 40.950012%, 8.601379%)" offset="0.777344"/><stop stop-opacity="1" stop-color="rgb(74.185181%, 39.749146%, 7.621765%)" offset="0.78125"/><stop stop-opacity="1" stop-color="rgb(74.691772%, 40.631104%, 8.340454%)" offset="0.785156"/><stop stop-opacity="1" stop-color="rgb(75.198364%, 41.513062%, 9.060669%)" offset="0.789063"/><stop stop-opacity="1" stop-color="rgb(75.784302%, 42.533875%, 9.893799%)" offset="0.792969"/><stop stop-opacity="1" stop-color="rgb(76.370239%, 43.554688%, 10.726929%)" offset="0.796875"/><stop stop-opacity="1" stop-color="rgb(76.956177%, 44.5755%, 11.558533%)" offset="0.800781"/><stop stop-opacity="1" stop-color="rgb(77.542114%, 45.596313%, 12.391663%)" offset="0.804688"/><stop stop-opacity="1" stop-color="rgb(78.128052%, 46.615601%, 13.224792%)" offset="0.808594"/><stop stop-opacity="1" stop-color="rgb(78.715515%, 47.636414%, 14.057922%)" offset="0.8125"/><stop stop-opacity="1" stop-color="rgb(79.301453%, 48.657227%, 14.891052%)" offset="0.816406"/><stop stop-opacity="1" stop-color="rgb(79.88739%, 49.67804%, 15.724182%)" offset="0.820313"/><stop stop-opacity="1" stop-color="rgb(80.473328%, 50.698853%, 16.555786%)" offset="0.824219"/><stop stop-opacity="1" stop-color="rgb(81.059265%, 51.719666%, 17.388916%)" offset="0.828125"/><stop stop-opacity="1" stop-color="rgb(81.645203%, 52.740479%, 18.222046%)" offset="0.832031"/><stop stop-opacity="1" stop-color="rgb(82.232666%, 53.761292%, 19.055176%)" offset="0.835938"/><stop stop-opacity="1" stop-color="rgb(82.818604%, 54.782104%, 19.888306%)" offset="0.839844"/><stop stop-opacity="1" stop-color="rgb(83.404541%, 55.802917%, 20.721436%)" offset="0.84375"/><stop stop-opacity="1" stop-color="rgb(83.990479%, 56.82373%, 21.55304%)" offset="0.847656"/><stop stop-opacity="1" stop-color="rgb(84.576416%, 57.844543%, 22.386169%)" offset="0.851563"/><stop stop-opacity="1" stop-color="rgb(85.162354%, 58.865356%, 23.219299%)" offset="0.855469"/><stop stop-opacity="1" stop-color="rgb(85.749817%, 59.886169%, 24.052429%)" offset="0.859375"/><stop stop-opacity="1" stop-color="rgb(86.335754%, 60.905457%, 24.884033%)" offset="0.863281"/><stop stop-opacity="1" stop-color="rgb(86.921692%, 61.92627%, 25.717163%)" offset="0.867188"/><stop stop-opacity="1" stop-color="rgb(87.507629%, 62.947083%, 26.550293%)" offset="0.871094"/><stop stop-opacity="1" stop-color="rgb(88.093567%, 63.967896%, 27.383423%)" offset="0.875"/><stop stop-opacity="1" stop-color="rgb(88.679504%, 64.988708%, 28.216553%)" offset="0.878906"/><stop stop-opacity="1" stop-color="rgb(89.266968%, 66.009521%, 29.049683%)" offset="0.882813"/><stop stop-opacity="1" stop-color="rgb(89.852905%, 67.030334%, 29.881287%)" offset="0.886719"/><stop stop-opacity="1" stop-color="rgb(90.438843%, 68.051147%, 30.714417%)" offset="0.890625"/><stop stop-opacity="1" stop-color="rgb(91.02478%, 69.07196%, 31.547546%)" offset="0.894531"/><stop stop-opacity="1" stop-color="rgb(91.610718%, 70.092773%, 32.380676%)" offset="0.898438"/><stop stop-opacity="1" stop-color="rgb(92.196655%, 71.113586%, 33.213806%)" offset="0.902344"/><stop stop-opacity="1" stop-color="rgb(92.782593%, 72.134399%, 34.046936%)" offset="0.90625"/><stop stop-opacity="1" stop-color="rgb(93.36853%, 73.155212%, 34.87854%)" offset="0.910156"/><stop stop-opacity="1" stop-color="rgb(93.955994%, 74.176025%, 35.71167%)" offset="0.914062"/><stop stop-opacity="1" stop-color="rgb(94.541931%, 75.195312%, 36.5448%)" offset="0.917969"/><stop stop-opacity="1" stop-color="rgb(95.127869%, 76.216125%, 37.37793%)" offset="0.921875"/><stop stop-opacity="1" stop-color="rgb(95.713806%, 77.236938%, 38.21106%)" offset="0.925781"/><stop stop-opacity="1" stop-color="rgb(96.299744%, 78.257751%, 39.044189%)" offset="0.929688"/><stop stop-opacity="1" stop-color="rgb(96.885681%, 79.278564%, 39.875793%)" offset="0.933594"/><stop stop-opacity="1" stop-color="rgb(97.473145%, 80.299377%, 40.708923%)" offset="0.9375"/><stop stop-opacity="1" stop-color="rgb(98.059082%, 81.32019%, 41.542053%)" offset="0.941406"/><stop stop-opacity="1" stop-color="rgb(98.64502%, 82.341003%, 42.375183%)" offset="0.945313"/><stop stop-opacity="1" stop-color="rgb(99.230957%, 83.361816%, 43.208313%)" offset="0.949219"/><stop stop-opacity="1" stop-color="rgb(99.816895%, 84.382629%, 44.041443%)" offset="0.953125"/><stop stop-opacity="1" stop-color="rgb(99.908447%, 84.539795%, 44.169617%)" offset="0.96875"/><stop stop-opacity="1" stop-color="rgb(100%, 84.698486%, 44.299316%)" offset="1"/></linearGradient><clipPath id="72a519fa9e"><path d="M 285.113281 273.117188 L 305.363281 273.117188 L 305.363281 292.617188 L 285.113281 292.617188 Z M 285.113281 273.117188 " clip-rule="nonzero"/></clipPath><clipPath id="75d2f48022"><path d="M 264.773438 273.117188 L 285.023438 273.117188 L 285.023438 292.617188 L 264.773438 292.617188 Z M 264.773438 273.117188 " clip-rule="nonzero"/></clipPath><clipPath id="9374b33827"><path d="M 244.4375 273.117188 L 264.6875 273.117188 L 264.6875 292.617188 L 244.4375 292.617188 Z M 244.4375 273.117188 " clip-rule="nonzero"/></clipPath><clipPath id="168d599350"><path d="M 224.097656 273.117188 L 244.347656 273.117188 L 244.347656 292.617188 L 224.097656 292.617188 Z M 224.097656 273.117188 " clip-rule="nonzero"/></clipPath><clipPath id="a841418426"><path d="M 203.757812 273.117188 L 224.007812 273.117188 L 224.007812 292.617188 L 203.757812 292.617188 Z M 203.757812 273.117188 " clip-rule="nonzero"/></clipPath></defs><g clip-path="url(#0abc9a14d0)"><g clip-path="url(#33b33df799)"><g clip-path="url(#755935a999)"><g clip-path="url(#b5c34d6163)"><g clip-path="url(#18a9791dd4)"><path fill="url(#2bbe8a3478)" d="M 299.453125 -141.371094 L -131.375 77.703125 L 91.652344 516.300781 L 522.480469 297.222656 Z M 299.453125 -141.371094 " fill-rule="nonzero"/></g></g></g></g></g><g fill="#f8d26b" fill-opacity="1"><g transform="translate(165.885361, 53.577808)"><g><path d="M 4.910156 -15.253906 C 4.835938 -9.867188 4.277344 -3.566406 0.511719 -0.199219 C 1.046875 0.214844 1.917969 1.078125 2.320312 1.597656 C 6.484375 -2.261719 7.277344 -9.132812 7.546875 -15.164062 Z M 13.152344 -16.074219 L 10.792969 -15.777344 C 10.964844 -14.449219 11.6875 -4.191406 17.441406 0.894531 C 17.890625 0.21875 18.625 -0.371094 19.460938 -0.902344 C 13.902344 -5.578125 13.253906 -15.019531 13.152344 -16.074219 Z M 13.152344 -16.074219 "/></g></g></g><g fill="#f8d26b" fill-opacity="1"><g transform="translate(200.314831, 53.921714)"><g><path d="M 6.8125 -6.863281 L 6.835938 -6.980469 C 8.011719 -8.160156 9.054688 -9.492188 9.929688 -10.878906 L 8.96875 -12.050781 L 8.578125 -12.03125 L 7.210938 -12.308594 L 8.730469 -12.976562 C 8.515625 -13.710938 8.023438 -14.890625 7.59375 -15.769531 L 5.726562 -15.09375 C 6.070312 -14.273438 6.460938 -13.214844 6.6875 -12.417969 L 3.582031 -13.050781 L 3.15625 -10.964844 L 7 -10.179688 C 5.515625 -8.285156 3.398438 -6.582031 1.472656 -5.714844 C 1.679688 -5.226562 1.953125 -3.890625 1.980469 -3.214844 C 2.707031 -3.59375 3.433594 -4.074219 4.183594 -4.65625 L 2.761719 2.3125 L 4.847656 2.738281 L 6.3125 -4.421875 C 6.757812 -3.519531 7.167969 -2.539062 7.386719 -1.925781 L 8.96875 -3.492188 C 8.800781 -3.773438 8.359375 -4.492188 7.902344 -5.238281 C 8.484375 -5.605469 9.191406 -6.070312 9.929688 -6.507812 L 8.824219 -8.058594 C 8.421875 -7.589844 7.699219 -6.925781 7.09375 -6.457031 Z M 12.015625 -6.164062 L 12.386719 -7.980469 L 14.023438 -7.644531 L 13.65625 -5.828125 Z M 13.121094 -11.570312 L 14.757812 -11.234375 L 14.394531 -9.460938 L 12.757812 -9.792969 Z M 18.242188 -8.671875 L 16.5625 -9.015625 L 16.925781 -10.792969 L 18.605469 -10.449219 Z M 17.5 -5.042969 L 15.820312 -5.386719 L 16.191406 -7.203125 L 17.871094 -6.859375 Z M 14.289062 2.109375 L 14.695312 0.117188 L 18.695312 0.933594 L 19.109375 -1.09375 L 15.109375 -1.914062 L 15.421875 -3.433594 L 19.285156 -2.644531 L 21.1875 -11.953125 L 11.449219 -13.945312 L 9.546875 -4.636719 L 13.253906 -3.878906 L 12.945312 -2.355469 L 9.351562 -3.089844 L 8.9375 -1.058594 L 12.53125 -0.324219 L 12.121094 1.664062 L 7.789062 0.777344 L 7.371094 2.828125 L 18.476562 5.097656 L 18.894531 3.050781 Z M 14.289062 2.109375 "/></g></g></g><g fill="#f8d26b" fill-opacity="1"><g transform="translate(233.650797, 62.536832)"><g><path d="M 12.929688 -8.84375 L 13.878906 -10.839844 L 7.371094 -13.941406 L 6.417969 -11.945312 L 8.898438 -10.765625 L 3.726562 0.0976562 C 3.605469 0.351562 3.472656 0.398438 3.195312 0.285156 C 2.925781 0.15625 2.007812 -0.277344 1.179688 -0.71875 C 1.195312 -0.00390625 1.019531 1.058594 0.824219 1.648438 C 2.199219 2.328125 3.179688 2.726562 4.007812 2.703125 C 4.816406 2.671875 5.289062 2.1875 5.804688 1.109375 L 10.984375 -9.769531 Z M 12.179688 0.0429688 L 16.890625 2.289062 L 16.34375 3.4375 L 11.632812 1.195312 Z M 13.429688 -2.582031 L 18.144531 -0.335938 L 17.601562 0.796875 L 12.890625 -1.449219 Z M 14.664062 -5.171875 L 19.375 -2.925781 L 18.835938 -1.792969 L 14.125 -4.039062 Z M 17.691406 5.980469 L 22.207031 -3.5 L 18.429688 -5.296875 C 18.761719 -5.625 19.128906 -5.980469 19.5 -6.332031 L 23.363281 -4.492188 L 24.222656 -6.289062 L 14.3125 -11.007812 L 13.457031 -9.210938 L 17.089844 -7.480469 C 16.820312 -7.101562 16.523438 -6.714844 16.238281 -6.34375 L 13.429688 -7.679688 L 8.917969 1.796875 L 10.75 2.671875 C 9.5 2.980469 7.355469 2.996094 5.703125 2.761719 C 5.9375 3.378906 6.210938 4.28125 6.3125 4.859375 C 8.105469 5.074219 10.414062 5.046875 12.046875 4.679688 L 10.949219 2.765625 Z M 12.945312 5.152344 C 13.78125 6.410156 14.847656 8.152344 15.257812 9.1875 L 17.550781 8.734375 C 17.046875 7.65625 15.910156 5.921875 15.070312 4.773438 Z M 12.945312 5.152344 "/></g></g></g><g fill="#f8d26b" fill-opacity="1"><g transform="translate(263.935882, 78.917313)"><g><path d="M 10.199219 1.546875 C 10.671875 0.59375 11.28125 -1.121094 11.671875 -2.476562 L 9.941406 -3.101562 C 9.785156 -2.660156 9.609375 -2.160156 9.441406 -1.707031 L 7.636719 -2.800781 C 9.953125 -3.144531 12.4375 -3.753906 14.652344 -4.566406 L 13.957031 -6.761719 C 13.046875 -6.347656 12.050781 -5.980469 11.105469 -5.675781 L 9.84375 -6.558594 C 11.554688 -6.980469 13.457031 -7.664062 15.089844 -8.460938 L 14.042969 -10.480469 C 12.101562 -9.339844 9.65625 -8.464844 8.949219 -8.296875 C 8.246094 -8.128906 7.742188 -8.050781 7.371094 -8.226562 C 7.191406 -7.628906 6.824219 -6.613281 6.621094 -6.210938 C 6.957031 -6.117188 7.386719 -5.917969 8.777344 -5.007812 C 7.824219 -4.789062 7.058594 -4.640625 6.683594 -4.589844 C 5.71875 -4.453125 5.0625 -4.375 4.570312 -4.625 C 4.417969 -4.027344 4.011719 -2.96875 3.835938 -2.570312 C 4.347656 -2.4375 5.015625 -2.121094 8.734375 0.0351562 C 8.585938 0.375 8.417969 0.671875 8.285156 0.925781 Z M 3.464844 -2.054688 C 2.359375 -0.898438 1.050781 0.320312 -0.0351562 0.953125 C 0.273438 1.359375 0.8125 2.214844 1.011719 2.660156 C 2.09375 2.003906 3.554688 0.753906 4.800781 -0.542969 Z M 5.117188 -0.359375 C 4.429688 0.851562 3.445312 2.363281 2.730469 3.296875 L 4.460938 4.203125 C 5.160156 3.257812 6.089844 1.75 6.761719 0.523438 Z M 8.003906 6.417969 C 9.417969 5.667969 10.8125 4.625 12.25 3.382812 C 12.027344 4.4375 11.875 5.5 11.835938 6.523438 C 10.539062 6.71875 9.246094 6.664062 8.003906 6.417969 Z M 20.289062 -1.355469 C 18.722656 -0.167969 17 1.046875 15.75 1.847656 L 18.226562 3.882812 C 16.839844 4.882812 15.410156 5.589844 13.984375 6.070312 C 14.046875 4.238281 14.484375 2.382812 15.121094 0.636719 C 16.203125 -0.460938 17.289062 -1.65625 18.394531 -2.910156 Z M 20.472656 2.96875 L 20.101562 2.792969 L 19.226562 2.074219 C 20.667969 1.070312 22.347656 -0.15625 23.753906 -1.246094 L 16.6875 -7.046875 L 15.347656 -5.414062 L 16.65625 -4.339844 C 13.582031 -0.78125 10.625 2.28125 7.707031 3.957031 C 8.070312 3.199219 8.476562 2.167969 8.761719 1.320312 L 7.144531 0.683594 C 6.773438 1.667969 6.246094 2.9375 5.824219 3.671875 L 7.277344 4.195312 C 6.644531 4.527344 6.003906 4.773438 5.398438 4.945312 C 5.625 5.519531 6.015625 6.769531 6.09375 7.269531 C 6.679688 7.058594 7.277344 6.800781 7.84375 6.519531 C 8 7.109375 8.023438 8.183594 7.960938 8.726562 C 9.214844 8.957031 10.507812 8.988281 11.875 8.796875 C 11.992188 10.128906 12.300781 11.414062 12.804688 12.625 C 13.417969 12.382812 14.457031 12.179688 15.09375 12.160156 C 14.523438 10.972656 14.199219 9.671875 14.039062 8.328125 C 16.359375 7.632812 18.808594 6.316406 21.226562 4.3125 Z M 20.472656 2.96875 "/></g></g></g><g fill="#f8d26b" fill-opacity="1"><g transform="translate(289.391854, 102.101362)"><g><path d="M 17.289062 8.800781 C 16.664062 8.796875 15.851562 8.707031 15.058594 8.574219 C 15.570312 7.996094 16.128906 7.40625 16.707031 6.851562 C 17.65625 7.558594 18.597656 8.222656 19.507812 8.742188 L 19.75 6.300781 C 18.15625 5.496094 16.027344 3.90625 14.171875 2.28125 C 15.035156 2.308594 15.933594 2.210938 16.898438 2.039062 L 21.195312 7.804688 L 22.917969 6.519531 L 19.167969 1.488281 C 19.824219 1.300781 20.46875 1.066406 21.097656 0.773438 L 20.089844 -1.308594 C 18.28125 -0.503906 16.359375 -0.015625 14.609375 -0.03125 L 16.253906 -1.257812 L 14.136719 -4.101562 L 15.316406 -3.316406 C 15.785156 -3.886719 16.429688 -4.890625 16.832031 -5.714844 L 15.097656 -6.976562 C 14.703125 -6.238281 14.09375 -5.386719 13.625 -4.785156 L 11.589844 -7.519531 L 9.832031 -6.207031 L 10.949219 -4.707031 L 8.777344 -3.089844 C 6.605469 -1.46875 3.644531 0.390625 -0.0976562 0.570312 C -0.0195312 1.207031 -0.015625 2.148438 -0.128906 2.730469 C 3.441406 2.652344 6.476562 1.058594 8.914062 -0.605469 L 9.78125 0.558594 C 5.972656 3.25 4.519531 4.132812 4.019531 4.160156 C 3.730469 4.175781 3.601562 4.097656 3.445312 3.890625 C 3.265625 3.652344 2.945312 3.21875 2.648438 2.722656 C 2.378906 3.292969 1.824219 3.980469 1.351562 4.382812 C 1.800781 5.015625 2.230469 5.59375 2.59375 5.914062 C 2.980469 6.300781 3.390625 6.515625 4.050781 6.46875 C 4.921875 6.46875 6.882812 5.203125 12.042969 1.558594 C 12.277344 1.40625 12.804688 1.015625 12.804688 1.015625 L 10.652344 -1.875 L 12.199219 -3.03125 L 14.425781 -0.0429688 C 14.070312 -0.0507812 13.738281 -0.101562 13.402344 -0.148438 C 13.484375 0.460938 13.453125 1.652344 13.382812 2.222656 L 13.496094 2.242188 L 7.617188 6.621094 C 6.800781 7.226562 5.945312 7.246094 5.421875 7.140625 C 5.363281 7.628906 5.0625 8.625 4.796875 9.070312 C 5.316406 9.203125 5.964844 9.539062 9.363281 11.53125 C 9.691406 11.136719 10.402344 10.457031 10.917969 10.046875 L 8.671875 8.667969 L 14.050781 4.65625 C 14.394531 4.949219 14.730469 5.269531 15.0625 5.542969 C 11.855469 8.675781 9.5625 11.730469 9.453125 14.917969 C 10.148438 14.820312 11.308594 14.875 11.96875 15.027344 C 11.9375 13.484375 12.628906 11.878906 13.710938 10.300781 C 14.738281 10.578125 15.992188 10.859375 17.109375 11.023438 Z M 17.289062 8.800781 "/></g></g></g><g fill="#f8d26b" fill-opacity="1"><g transform="translate(308.52405, 130.727677)"><g><path d="M 14.042969 -0.105469 C 14.589844 -0.960938 15.164062 -2.523438 15.496094 -3.742188 L 13.632812 -4.835938 C 13.265625 -3.601562 12.589844 -2.066406 12.050781 -1.300781 Z M 4.6875 3.90625 C 4.570312 4.300781 4.378906 4.816406 4.164062 5.1875 C 4.257812 4.738281 4.335938 4.359375 4.355469 4.046875 Z M 4.125 5.503906 C 6.683594 6.398438 9.550781 5.667969 11.75 4.832031 L 12.191406 5.878906 C 8.632812 7.285156 7.328125 7.726562 6.902344 7.644531 C 6.667969 7.59375 6.558594 7.488281 6.472656 7.285156 C 6.371094 7.046875 6.21875 6.679688 6.074219 6.179688 C 5.710938 6.652344 5.046875 7.128906 4.527344 7.386719 C 4.796875 8.03125 5.042969 8.617188 5.28125 8.972656 C 5.546875 9.402344 5.84375 9.644531 6.398438 9.734375 C 7.144531 9.917969 9.011719 9.265625 13.996094 7.300781 L 14.75 6.984375 L 13.539062 4.101562 L 14.878906 3.539062 L 15.929688 6.035156 C 15.816406 6.492188 15.628906 7.222656 15.460938 7.703125 L 14.304688 8.1875 L 15.359375 10.703125 C 14.90625 10.546875 14.457031 10.347656 14.066406 10.144531 L 12.929688 10.621094 L 12.066406 8.566406 L 10.339844 9.289062 L 11.203125 11.347656 L 9.054688 12.25 C 8.886719 12.320312 8.808594 12.289062 8.71875 12.066406 C 8.632812 11.863281 8.347656 11.183594 8.082031 10.5 C 7.683594 10.988281 7.042969 11.582031 6.535156 11.859375 C 6.976562 12.90625 7.316406 13.671875 7.84375 14.097656 C 8.390625 14.582031 8.949219 14.476562 9.8125 14.113281 L 11.980469 13.203125 L 12.875 15.332031 L 14.601562 14.609375 L 13.707031 12.476562 L 14.425781 12.175781 C 15.375 12.640625 16.449219 13.035156 17.410156 13.320312 L 17.824219 11.785156 L 17.566406 11.484375 L 16.117188 8.03125 C 16.550781 8.085938 16.984375 8.140625 17.472656 8.175781 L 19.292969 12.507812 L 21.09375 11.753906 L 19.605469 8.207031 C 20.152344 8.171875 20.679688 8.144531 21.21875 8.09375 L 20.945312 6.046875 C 19.65625 6.222656 18.269531 6.261719 17.039062 6.109375 L 17.921875 5.738281 L 17.21875 4.070312 C 17.792969 3.632812 18.53125 2.976562 19.097656 2.417969 L 17.929688 0.617188 C 17.457031 1.03125 16.851562 1.542969 16.316406 1.917969 L 15.339844 -0.414062 L 13.539062 0.34375 L 14.132812 1.757812 L 11.929688 2.683594 C 10.089844 3.453125 7.441406 4.394531 5.054688 3.753906 L 11.410156 1.085938 L 9.652344 -3.101562 L 7.628906 -2.253906 L 8.488281 -0.214844 L 3.308594 1.960938 C 2.585938 1.375 1.632812 0.847656 0.582031 0.40625 L -0.792969 2.644531 C 0.640625 2.972656 2.132812 3.382812 2.371094 3.953125 C 2.535156 4.335938 2.246094 5.191406 2.125 6.085938 C 1.921875 7.660156 2.324219 9.242188 3.265625 11.484375 C 4.074219 13.410156 5.402344 16.3125 6.082031 17.625 C 6.683594 17.414062 7.890625 17.296875 8.558594 17.296875 C 7.515625 15.53125 6.085938 12.589844 5.296875 10.714844 C 4.464844 8.730469 3.886719 7.097656 4.121094 5.59375 Z M 4.125 5.503906 "/></g></g></g><g fill="#efc75e" fill-opacity="1"><g transform="translate(87.454138, 186.055635)"><g><path d="M 76.742188 -79.210938 C 67.320312 -84.371094 49.144531 -90.433594 35.453125 -93.683594 L 31.414062 -86.839844 C 45.328125 -83.363281 63.390625 -76.632812 72.480469 -71.46875 Z M 38.371094 -49.589844 L 36.914062 -49.253906 L 6.621094 -49.253906 L 6.621094 -41.289062 L 33.324219 -41.289062 C 27.714844 -24.90625 16.71875 -12.003906 4.375 -4.710938 C 6.28125 -3.367188 9.648438 -0.222656 10.882812 1.570312 C 25.246094 -7.628906 38.148438 -24.234375 43.871094 -47.125 Z M 96.378906 -62.832031 C 89.871094 -55.539062 79.324219 -46 70.460938 -39.269531 C 66.421875 -46.449219 63.28125 -54.304688 60.8125 -62.605469 L 60.8125 -70.910156 L 21.207031 -70.910156 L 21.207031 -62.832031 L 52.058594 -62.832031 L 52.058594 -2.242188 C 52.058594 -0.449219 51.386719 0.113281 49.367188 0.222656 C 47.570312 0.335938 40.953125 0.335938 34.109375 0 C 35.453125 2.355469 36.800781 6.058594 37.136719 8.300781 C 46.449219 8.300781 52.398438 8.191406 55.988281 6.84375 C 59.578125 5.496094 60.8125 2.917969 60.8125 -2.132812 L 60.8125 -41.851562 C 69.675781 -21.992188 83.140625 -6.84375 101.988281 1.347656 C 103.222656 -1.011719 105.914062 -4.261719 107.710938 -5.945312 C 93.796875 -11.21875 82.691406 -20.757812 74.386719 -33.097656 C 83.699219 -39.605469 95.144531 -49.253906 103.894531 -57.445312 Z M 96.378906 -62.832031 "/></g></g></g><g fill="#efc75e" fill-opacity="1"><g transform="translate(166.99851, 245.772669)"><g><path d="M 104.792969 -21.429688 L 104.792969 -28.945312 L 58.007812 -28.945312 C 58.566406 -31.640625 59.015625 -34.558594 59.351562 -37.585938 L 106.140625 -37.585938 L 106.140625 -44.992188 L 60.027344 -44.992188 L 60.027344 -54.417969 L 95.929688 -54.417969 L 95.929688 -61.710938 L 60.027344 -61.710938 L 60.027344 -70.796875 L 100.976562 -70.796875 L 100.976562 -78.3125 L 77.417969 -78.3125 C 80.332031 -82.242188 83.699219 -87.066406 86.394531 -91.664062 L 77.867188 -94.246094 C 75.507812 -89.535156 71.582031 -82.914062 68.214844 -78.3125 L 38.707031 -78.3125 L 42.746094 -80.109375 C 40.953125 -84.148438 37.027344 -89.984375 32.875 -94.246094 L 25.695312 -91.328125 C 29.058594 -87.402344 32.539062 -82.242188 34.332031 -78.3125 L 11.332031 -78.3125 L 11.332031 -70.796875 L 51.722656 -70.796875 L 51.722656 -61.710938 L 16.828125 -61.710938 L 16.828125 -54.417969 L 51.722656 -54.417969 L 51.722656 -44.992188 L 6.730469 -44.992188 L 6.730469 -37.585938 L 50.714844 -37.585938 C 50.378906 -34.558594 49.929688 -31.640625 49.253906 -28.945312 L 9.535156 -28.945312 L 9.535156 -21.429688 L 46.785156 -21.429688 C 41.738281 -9.984375 30.742188 -2.917969 4.9375 0.785156 C 6.507812 2.691406 8.640625 6.171875 9.3125 8.300781 C 38.035156 3.367188 50.039062 -5.835938 55.648438 -20.53125 C 64.289062 -4.375 79.4375 4.601562 102.101562 8.300781 C 103.109375 5.835938 105.464844 2.46875 107.148438 0.5625 C 86.730469 -1.90625 72.03125 -8.976562 63.953125 -21.429688 Z M 104.792969 -21.429688 "/></g></g></g><g clip-path="url(#72a519fa9e)"><path fill="#f4c01e" d="M 295.238281 273.117188 L 297.847656 279.054688 C 297.945312 279.28125 298.105469 279.480469 298.304688 279.625 C 298.503906 279.773438 298.738281 279.863281 298.980469 279.890625 L 305.363281 280.566406 L 300.59375 284.914062 C 300.410156 285.078125 300.273438 285.292969 300.199219 285.53125 C 300.121094 285.765625 300.109375 286.019531 300.160156 286.265625 L 301.496094 292.621094 L 295.941406 289.367188 C 295.726562 289.242188 295.484375 289.179688 295.238281 289.179688 C 294.992188 289.179688 294.75 289.242188 294.535156 289.367188 L 288.980469 292.621094 L 290.316406 286.265625 C 290.367188 286.019531 290.355469 285.765625 290.28125 285.53125 C 290.203125 285.292969 290.066406 285.078125 289.882812 284.914062 L 285.113281 280.566406 L 291.496094 279.890625 C 291.742188 279.863281 291.972656 279.773438 292.171875 279.625 C 292.375 279.480469 292.53125 279.28125 292.632812 279.054688 Z M 295.238281 273.117188 " fill-opacity="1" fill-rule="evenodd"/></g><g clip-path="url(#75d2f48022)"><path fill="#f4c01e" d="M 274.898438 273.117188 L 277.507812 279.054688 C 277.609375 279.28125 277.765625 279.480469 277.964844 279.625 C 278.164062 279.773438 278.398438 279.863281 278.644531 279.890625 L 285.023438 280.566406 L 280.253906 284.914062 C 280.070312 285.078125 279.933594 285.292969 279.859375 285.53125 C 279.78125 285.765625 279.769531 286.019531 279.820312 286.265625 L 281.15625 292.621094 L 275.601562 289.367188 C 275.386719 289.242188 275.144531 289.179688 274.898438 289.179688 C 274.652344 289.179688 274.410156 289.242188 274.199219 289.367188 L 268.640625 292.621094 L 269.976562 286.265625 C 270.03125 286.019531 270.015625 285.765625 269.941406 285.53125 C 269.863281 285.292969 269.726562 285.078125 269.542969 284.914062 L 264.773438 280.566406 L 271.15625 279.890625 C 271.402344 279.863281 271.636719 279.773438 271.835938 279.625 C 272.035156 279.480469 272.191406 279.28125 272.292969 279.054688 Z M 274.898438 273.117188 " fill-opacity="1" fill-rule="evenodd"/></g><g clip-path="url(#9374b33827)"><path fill="#f4c01e" d="M 254.5625 273.117188 L 257.167969 279.054688 C 257.269531 279.28125 257.425781 279.480469 257.625 279.625 C 257.824219 279.773438 258.058594 279.863281 258.304688 279.890625 L 264.6875 280.566406 L 259.914062 284.914062 C 259.734375 285.078125 259.597656 285.292969 259.519531 285.53125 C 259.445312 285.765625 259.429688 286.019531 259.480469 286.265625 L 260.816406 292.621094 L 255.261719 289.367188 C 255.050781 289.242188 254.808594 289.179688 254.5625 289.179688 C 254.3125 289.179688 254.070312 289.242188 253.859375 289.367188 L 248.304688 292.621094 L 249.640625 286.265625 C 249.691406 286.019531 249.675781 285.765625 249.601562 285.53125 C 249.523438 285.292969 249.386719 285.078125 249.207031 284.914062 L 244.433594 280.566406 L 250.816406 279.890625 C 251.0625 279.863281 251.296875 279.773438 251.496094 279.625 C 251.695312 279.480469 251.851562 279.28125 251.953125 279.054688 Z M 254.5625 273.117188 " fill-opacity="1" fill-rule="evenodd"/></g><g clip-path="url(#168d599350)"><path fill="#f4c01e" d="M 234.222656 273.117188 L 236.828125 279.054688 C 236.929688 279.28125 237.085938 279.480469 237.285156 279.625 C 237.484375 279.773438 237.71875 279.863281 237.964844 279.890625 L 244.347656 280.566406 L 239.578125 284.914062 C 239.394531 285.078125 239.257812 285.292969 239.179688 285.53125 C 239.105469 285.765625 239.089844 286.019531 239.144531 286.265625 L 240.480469 292.621094 L 234.921875 289.367188 C 234.710938 289.242188 234.46875 289.179688 234.222656 289.179688 C 233.976562 289.179688 233.734375 289.242188 233.519531 289.367188 L 227.964844 292.621094 L 229.300781 286.265625 C 229.351562 286.019531 229.339844 285.765625 229.261719 285.53125 C 229.1875 285.292969 229.050781 285.078125 228.867188 284.914062 L 224.097656 280.566406 L 230.476562 279.890625 C 230.722656 279.863281 230.957031 279.773438 231.15625 279.625 C 231.355469 279.480469 231.511719 279.28125 231.613281 279.054688 Z M 234.222656 273.117188 " fill-opacity="1" fill-rule="evenodd"/></g><g clip-path="url(#a841418426)"><path fill="#f4c01e" d="M 213.882812 273.117188 L 216.488281 279.054688 C 216.589844 279.28125 216.746094 279.480469 216.949219 279.625 C 217.148438 279.773438 217.378906 279.863281 217.625 279.890625 L 224.007812 280.566406 L 219.238281 284.914062 C 219.054688 285.078125 218.917969 285.292969 218.839844 285.53125 C 218.765625 285.765625 218.753906 286.019531 218.804688 286.265625 L 220.140625 292.621094 L 214.585938 289.367188 C 214.371094 289.242188 214.128906 289.179688 213.882812 289.179688 C 213.636719 289.179688 213.394531 289.242188 213.179688 289.367188 L 207.625 292.621094 L 208.960938 286.265625 C 209.011719 286.019531 209 285.765625 208.921875 285.53125 C 208.847656 285.292969 208.710938 285.078125 208.527344 284.914062 L 203.757812 280.566406 L 210.140625 279.890625 C 210.382812 279.863281 210.617188 279.773438 210.816406 279.625 C 211.015625 279.480469 211.175781 279.28125 211.273438 279.054688 Z M 213.882812 273.117188 " fill-opacity="1" fill-rule="evenodd"/></g></svg>