<?xml version="1.0" encoding="UTF-8" standalone="no"?>
<!DOCTYPE svg PUBLIC "-//W3C//DTD SVG 1.1//EN" "http://www.w3.org/Graphics/SVG/1.1/DTD/svg11.dtd">
<svg width="100%" height="100%" viewBox="0 0 17 16" version="1.1" xmlns="http://www.w3.org/2000/svg" xmlns:xlink="http://www.w3.org/1999/xlink" xml:space="preserve" xmlns:serif="http://www.serif.com/" style="fill-rule:evenodd;clip-rule:evenodd;stroke-linejoin:round;stroke-miterlimit:2;">
    <g transform="matrix(1,0,0,1,-562,-257)">
        <g transform="matrix(0.04,0,0,0.04,562.25,257)">
            <rect id="MaskIcon" x="0" y="0" width="400" height="400" style="fill:none;"/>
            <g id="MaskIcon1" serif:id="MaskIcon">
                <g transform="matrix(8.50705,0,0,8.50705,-3243.23,-2190.48)">
                    <path d="M404.75,258.582C417.123,258.582 427.168,268.627 427.168,281C427.168,293.373 417.123,303.418 404.75,303.418C392.377,303.418 382.332,293.373 382.332,281C382.332,268.627 392.377,258.582 404.75,258.582ZM412.123,284.423C410.652,284.423 409.458,285.617 409.458,287.088C409.458,288.559 410.652,289.753 412.123,289.753C413.594,289.753 414.788,288.559 414.788,287.088C414.788,285.617 413.594,284.423 412.123,284.423ZM388.665,287.722C388.626,287.516 388.606,287.305 388.606,287.088C388.606,285.211 390.13,283.687 392.007,283.687C393.885,283.687 395.409,285.211 395.409,287.088C395.409,287.305 395.388,287.516 395.35,287.722L408.781,287.722C408.742,287.516 408.721,287.305 408.721,287.088C408.721,285.211 410.246,283.687 412.123,283.687C414,283.687 415.524,285.211 415.524,287.088C415.524,287.305 415.504,287.516 415.465,287.722L417.064,287.722C417.333,287.722 417.591,287.615 417.781,287.424C417.972,287.234 418.079,286.976 418.079,286.707L418.079,284.665C418.079,284.416 418.023,284.171 417.916,283.947C417.451,282.985 416.806,282.398 415.963,282.221L410.885,281.586C408.118,278.863 404.631,277.384 400.305,277.354C397.183,277.168 394.685,277.861 392.688,279.258L391.476,280.298C391.299,280.449 391.089,280.554 390.862,280.605L387.953,281.254C387.506,281.354 387.116,281.624 386.867,282.008C386.672,282.329 386.511,282.736 386.394,283.239C386.36,283.385 386.343,283.534 386.344,283.684C386.344,284.207 386.349,285.677 386.354,286.691C386.356,287.261 386.818,287.722 387.388,287.722L388.665,287.722ZM401.524,278.45C404.875,278.587 407.513,279.48 408.98,281.586L401.825,281.395L401.524,278.45ZM400.034,278.44L400.332,281.355L393.111,281.163C393.146,281.082 393.184,281.003 393.227,280.927C393.448,280.534 393.778,280.212 394.142,279.951C394.2,279.909 394.258,279.87 394.317,279.831C394.39,279.784 394.465,279.738 394.54,279.694C394.635,279.639 394.732,279.586 394.831,279.537C394.961,279.471 395.094,279.409 395.228,279.351C395.399,279.278 395.573,279.211 395.749,279.15C395.977,279.07 396.209,278.999 396.442,278.935C396.748,278.852 397.056,278.782 397.367,278.723C397.757,278.648 398.15,278.59 398.544,278.545C399.033,278.49 399.525,278.456 400.018,278.441L400.034,278.44ZM398.202,275.984C399.581,275.533 401.145,275.343 402.92,275.449C407.073,275.478 410.421,276.897 413.077,279.511L417.952,280.121C418.761,280.291 419.38,280.855 419.826,281.778C419.929,281.993 419.983,282.229 419.983,282.467L419.983,284.302C420.118,284.256 420.241,284.18 420.344,284.078C420.519,283.903 420.617,283.665 420.617,283.417L420.617,281.539C420.618,281.31 420.566,281.085 420.467,280.879C420.04,279.993 419.447,279.453 418.671,279.29L413.999,278.706C411.454,276.201 408.246,274.841 404.266,274.813C401.865,274.67 399.867,275.092 398.202,275.984ZM395.99,277.289C397.435,276.81 399.076,276.608 400.94,276.719C405.266,276.749 408.753,278.228 411.519,280.951L416.598,281.586C417.441,281.763 418.085,282.35 418.55,283.313C418.658,283.536 418.713,283.782 418.713,284.03L418.713,285.975C418.843,285.927 418.963,285.851 419.063,285.751C419.245,285.568 419.348,285.32 419.348,285.062L419.348,283.102C419.348,282.863 419.295,282.628 419.191,282.413C418.745,281.489 418.127,280.926 417.317,280.755L412.442,280.146C409.786,277.532 406.438,276.112 402.286,276.083C399.796,275.935 397.72,276.369 395.99,277.289ZM400.414,274.68C401.727,274.256 403.215,274.078 404.901,274.178C408.88,274.206 412.088,275.566 414.634,278.071L419.306,278.655C420.082,278.819 420.674,279.359 421.102,280.244C421.201,280.45 421.252,280.675 421.252,280.904L421.252,282.628C421.392,282.585 421.52,282.509 421.625,282.404C421.793,282.237 421.887,282.01 421.887,281.773L421.887,279.976C421.887,279.757 421.838,279.541 421.743,279.344C421.334,278.498 420.767,277.981 420.025,277.825L415.556,277.266C413.122,274.87 410.053,273.569 406.246,273.542C403.935,273.404 402.013,273.814 400.414,274.68ZM402.627,273.376C403.873,272.978 405.284,272.812 406.881,272.908C410.688,272.934 413.756,274.235 416.191,276.632L420.66,277.19C421.402,277.346 421.969,277.863 422.378,278.71C422.473,278.907 422.522,279.122 422.522,279.341L422.522,280.952C422.666,280.914 422.799,280.838 422.907,280.731C423.066,280.571 423.156,280.354 423.156,280.128L423.156,278.413C423.156,278.204 423.109,277.998 423.019,277.81C422.629,277.002 422.088,276.509 421.379,276.36L417.113,275.826C414.789,273.539 411.86,272.297 408.227,272.272C406.004,272.139 404.159,272.537 402.627,273.376ZM392.007,284.423C390.536,284.423 389.342,285.617 389.342,287.088C389.342,288.559 390.536,289.753 392.007,289.753C393.478,289.753 394.673,288.559 394.673,287.088C394.673,285.617 393.478,284.423 392.007,284.423Z"/>
                </g>
            </g>
        </g>
    </g>
</svg>
